<svg xmlns="http://www.w3.org/2000/svg" xmlns:xlink="http://www.w3.org/1999/xlink" fill="none" version="1.1" width="32" height="36.57143020629883" viewBox="0 0 32 36.57143020629883"><defs><clipPath id="master_svg0_0_69"><rect x="0" y="0" width="32" height="36.57143020629883" rx="0"/></clipPath></defs><g clip-path="url(#master_svg0_0_69)"><g><path d="M8,8C8,3.58143,11.5786,0,16,0C20.4214,0,24,3.58143,24,8C24,8,24,11.4286,24,11.4286C24,11.4286,28.5714,11.4286,28.5714,11.4286C30.4643,11.4286,32,12.9643,32,14.8571C32,14.8571,32,29.7143,32,29.7143C32,33.5,28.9286,36.5714,25.1429,36.5714C25.1429,36.5714,6.85714,36.5714,6.85714,36.5714C3.07,36.5714,0,33.5,0,29.7143C0,29.7143,0,14.8571,0,14.8571C0,12.9643,1.535,11.4286,3.42857,11.4286C3.42857,11.4286,8,11.4286,8,11.4286C8,11.4286,8,8,8,8ZM11.4286,11.4286C11.4286,11.4286,20.5714,11.4286,20.5714,11.4286C20.5714,11.4286,20.5714,8,20.5714,8C20.5714,5.475,18.5214,3.42857,16,3.42857C13.4786,3.42857,11.4286,5.475,11.4286,8C11.4286,8,11.4286,11.4286,11.4286,11.4286ZM9.71429,18.2857C10.6643,18.2857,11.4286,17.5214,11.4286,16.5714C11.4286,15.6214,10.6643,14.8571,9.71429,14.8571C8.76429,14.8571,8,15.6214,8,16.5714C8,17.5214,8.76429,18.2857,9.71429,18.2857ZM22.2857,14.8571C21.3357,14.8571,20.5714,15.6214,20.5714,16.5714C20.5714,17.5214,21.3357,18.2857,22.2857,18.2857C23.2357,18.2857,24,17.5214,24,16.5714C24,15.6214,23.2357,14.8571,22.2857,14.8571Z" fill="#FFFFFF" fill-opacity="1"/></g></g></svg>