<svg xmlns="http://www.w3.org/2000/svg" xmlns:xlink="http://www.w3.org/1999/xlink" fill="none" version="1.1" width="28.070175170898438" height="28.070175170898438" viewBox="0 0 28.070175170898438 28.070175170898438"><defs><clipPath id="master_svg0_0_32"><rect x="0" y="0" width="28.070175170898438" height="28.070175170898438" rx="0"/></clipPath></defs><g clip-path="url(#master_svg0_0_32)"><g><path d="M20.694844660186767,18.57354466018677L24.452444660186767,22.331144660186766Q24.55694466018677,22.435644660186767,24.639044660186766,22.55844466018677Q24.721044660186767,22.681244660186767,24.777644660186766,22.81774466018677Q24.834144660186766,22.954244660186767,24.862944660186766,23.099144660186766Q24.891844660186766,23.244044660186766,24.891844660186766,23.391844660186766Q24.891844660186766,23.539544660186767,24.862944660186766,23.684444660186767Q24.834144660186766,23.829344660186766,24.777644660186766,23.965844660186768Q24.721044660186767,24.102344660186766,24.639044660186766,24.225144660186768Q24.55694466018677,24.34804466018677,24.452444660186767,24.452444660186767Q24.34804466018677,24.55694466018677,24.225144660186768,24.639044660186766Q24.102344660186766,24.721044660186767,23.965844660186768,24.777644660186766Q23.829344660186766,24.834144660186766,23.684444660186767,24.862944660186766Q23.539544660186767,24.891844660186766,23.391844660186766,24.891844660186766Q23.244044660186766,24.891844660186766,23.099144660186766,24.862944660186766Q22.954244660186767,24.834144660186766,22.81774466018677,24.777644660186766Q22.681244660186767,24.721044660186767,22.55844466018677,24.639044660186766Q22.435644660186767,24.55694466018677,22.331144660186766,24.452444660186767L18.57354466018677,20.694844660186767Q17.64954466018677,21.36964466018677,16.572744660186768,21.815644660186766Q14.792444660186767,22.553044660186767,12.865494660186767,22.553044660186767Q10.938524660186769,22.553044660186767,9.158234660186768,21.815644660186766Q7.377944660186768,21.07824466018677,6.015364660186767,19.71564466018677Q4.652786760186768,18.353044660186768,3.9153656601867675,16.572744660186768Q3.1779446601867676,14.792444660186767,3.1779446601867676,12.865494660186767Q3.1779446601867676,10.938524660186769,3.9153656601867675,9.158234660186768Q4.652787060186768,7.377934660186767,6.015364660186767,6.015364660186767Q7.377944660186768,4.652785960186767,9.158234660186768,3.9153656601867675Q10.938524660186769,3.1779446601867676,12.865494660186767,3.1779446601867676Q14.792444660186767,3.1779446601867676,16.572744660186768,3.9153656601867675Q18.353044660186768,4.652786960186767,19.71564466018677,6.015364660186767Q21.07824466018677,7.377934660186767,21.815644660186766,9.158234660186768Q22.553044660186767,10.938524660186769,22.553044660186767,12.865494660186767Q22.553044660186767,14.792444660186767,21.815644660186766,16.572744660186768Q21.36964466018677,17.64954466018677,20.694844660186767,18.57354466018677ZM19.043944660186767,15.424744660186768Q18.534944660186767,16.653644660186767,17.594344660186767,17.594344660186767Q15.635544660186767,19.553044660186767,12.865494660186767,19.553044660186767Q10.095424660186769,19.553044660186767,8.136684660186768,17.594344660186767Q6.177944660186768,15.635544660186767,6.177944660186768,12.865494660186767Q6.177944660186768,10.095424660186769,8.136684660186768,8.136684660186768Q9.077304660186767,7.196064660186767,10.306284660186767,6.687004660186767Q11.535254660186768,6.177944660186768,12.865494660186767,6.177944660186768Q14.195734660186767,6.177944660186768,15.424744660186768,6.687004660186767Q16.653644660186767,7.196064660186767,17.594344660186767,8.136684660186768Q18.534944660186767,9.077304660186767,19.043944660186767,10.306284660186767Q19.553044660186767,11.535254660186768,19.553044660186767,12.865494660186767Q19.553044660186767,14.195734660186767,19.043944660186767,15.424744660186768Z" fill-rule="evenodd" fill="#FFFFFF" fill-opacity="1"/></g></g></svg>