<svg xmlns="http://www.w3.org/2000/svg" xmlns:xlink="http://www.w3.org/1999/xlink" fill="none" version="1.1" width="68" height="68" viewBox="0 0 68 68"><defs><clipPath id="master_svg0_0_275"><rect x="0" y="0" width="68" height="68" rx="0"/></clipPath><linearGradient x1="0" y1="0.5" x2="1" y2="0.5" id="master_svg1_0_30"><stop offset="0%" stop-color="#2AF598" stop-opacity="1"/><stop offset="100%" stop-color="#009EFD" stop-opacity="1"/></linearGradient></defs><g clip-path="url(#master_svg0_0_275)"><g><path d="M45.5753,26.697199847412108Q53.2192,26.10919984741211,57.7267,21.60169984741211Q62.0866,17.24179984741211,63.8202,10.885609847412109Q64.3592,8.90901984741211,64.5757,6.961099847412109Q64.6875,5.954510847412109,64.6875,5.312499847412109Q64.6875,5.225510847412109,64.6799,5.138850847412109Q64.67240000000001,5.052190647412109,64.6574,4.96651349741211Q64.6423,4.880836347412109,64.6199,4.79678884741211Q64.5974,4.71274184741211,64.5678,4.630959847412109Q64.5382,4.54917784741211,64.5015,4.47027784741211Q64.4649,4.39137884741211,64.42150000000001,4.315957847412109Q64.37819999999999,4.240536847412109,64.32849999999999,4.1691638474121095Q64.2787,4.097790847412109,64.223,4.03100484741211Q64.1673,3.9642198474121093,64.10589999999999,3.9025298474121093Q64.0446,3.8408298474121096,63.9782,3.7846898474121096Q63.9117,3.728559847412109,63.8406,3.678399847412109Q63.7696,3.6282498474121097,63.6944,3.5844498474121096Q63.6192,3.540659847412109,63.5406,3.5035498474121094Q63.4619,3.4664498474121093,63.3803,3.4363198474121095Q63.2987,3.4061898474121093,63.2148,3.3832498474121095Q63.1309,3.3603198474121094,63.0453,3.344759847412109Q62.2185,3.1944298474121093,60.9089,3.0867998474121094Q58.3345,2.875199847412109,55.7765,3.0516098474121094Q47.4124,3.628449847412109,42.2609,8.04398984741211Q36.9554,12.59155984741211,36.6505,19.29979984741211Q36.6219,19.92799984741211,36.640100000000004,20.552699847412107Q35.251400000000004,17.10809984741211,32.1141,14.41898984741211Q26.962600000000002,10.00344984741211,18.59854,9.42660984741211Q16.04053,9.250199847412109,13.46605,9.46179984741211Q12.156532,9.56942984741211,11.329729,9.71975984741211Q11.244144,9.735319847412109,11.160232,9.75824984741211Q11.076321,9.78118984741211,10.994718,9.81131984741211Q10.913114,9.84144984741211,10.834436,9.87854984741211Q10.755757,9.915659847412108,10.6806,9.95944984741211Q10.60544,10.00324984741211,10.53436,10.05339984741211Q10.46329,10.103559847412109,10.396840000000001,10.15968984741211Q10.33039,10.21582984741211,10.26906,10.277519847412108Q10.20773,10.33921984741211,10.152,10.40599984741211Q10.096260000000001,10.472789847412109,10.04653,10.544159847412109Q9.9968,10.615539847412109,9.95346,10.69095984741211Q9.91011,10.766379847412109,9.87348,10.845279847412108Q9.83685,10.924179847412109,9.80721,11.00595984741211Q9.77756,11.08773984741211,9.75513,11.17178984741211Q9.7327,11.255839847412108,9.717649999999999,11.341509847412109Q9.70261,11.427189847412109,9.69505,11.51384984741211Q9.6875,11.600509847412109,9.6875,11.68749984741211Q9.6875,12.32951984741211,9.79934,13.33609984741211Q10.01578,15.28399984741211,10.55485,17.26059984741211Q12.288347,23.61679984741211,16.64829,27.97669984741211Q21.155810000000002,32.484199847412114,28.7997,33.07219984741211Q31.1253,33.25109984741211,33.4838,33.03669984741211Q34.130700000000004,32.97789984741211,34.652100000000004,32.90619984741211Q34.2911,34.53809984741211,33.6866,36.45239984741211Q33.547399999999996,36.89329984741211,33.4084,37.31249984741211L22.3125,37.31249984741211Q22.2212,37.31249984741211,22.130200000000002,37.32079984741211Q22.0393,37.32909984741211,21.9495,37.34569984741211Q21.8597,37.36229984741211,21.7718,37.386999847412106Q21.68384,37.41169984741211,21.59854,37.44429984741211Q21.51323,37.476899847412106,21.43125,37.51709984741211Q21.34927,37.55739984741211,21.2713,37.604899847412106Q21.19333,37.65239984741211,21.12002,37.70689984741211Q21.0467,37.76129984741211,20.978659999999998,37.82219984741211Q20.91061,37.88309984741211,20.848399999999998,37.94999984741211Q20.78618,38.01679984741211,20.73032,38.08909984741211Q20.67446,38.16129984741211,20.625410000000002,38.23839984741211Q20.57637,38.31539984741211,20.53455,38.39659984741211Q20.49273,38.47779984741211,20.45848,38.56239984741211Q20.42423,38.64709984741211,20.397840000000002,38.73449984741211Q20.37145,38.82189984741211,20.35313,38.911399847412106Q20.33482,39.00089984741211,20.324730000000002,39.09159984741211Q20.17661,40.42469984741211,20.23026,42.35629984741211Q20.33738,46.21259984741211,21.32948,49.45939984741211Q22.773899999999998,54.18649984741211,25.9236,56.95209984741211Q29.893,60.43749984741211,36.125,60.43749984741211Q42.357,60.43749984741211,46.3264,56.95209984741211Q49.4761,54.18649984741211,50.9205,49.45939984741211Q51.9126,46.21259984741211,52.0197,42.35629984741211Q52.0734,40.42479984741211,51.9253,39.09159984741211Q51.9152,39.00089984741211,51.8969,38.911399847412106Q51.8785,38.82189984741211,51.8522,38.73449984741211Q51.8258,38.64709984741211,51.7915,38.56239984741211Q51.7573,38.47779984741211,51.7155,38.39659984741211Q51.6736,38.31539984741211,51.6246,38.23839984741211Q51.5755,38.16129984741211,51.5197,38.08909984741211Q51.4638,38.01679984741211,51.4016,37.94999984741211Q51.3394,37.88309984741211,51.2713,37.82219984741211Q51.2033,37.76129984741211,51.13,37.70689984741211Q51.0567,37.65239984741211,50.9787,37.604899847412106Q50.9007,37.55739984741211,50.8187,37.51709984741211Q50.7368,37.476899847412106,50.6515,37.44429984741211Q50.5662,37.41169984741211,50.4782,37.386999847412106Q50.3903,37.36229984741211,50.3005,37.34569984741211Q50.2107,37.32909984741211,50.1198,37.32079984741211Q50.0288,37.31249984741211,49.9375,37.31249984741211L37.6085,37.31249984741211Q39.1875,32.19849984741211,39.1875,28.68749984741211Q39.1875,28.52569984741211,39.161500000000004,28.36599984741211Q39.1355,28.206299847412108,39.084199999999996,28.05289984741211Q39.0328,27.89949984741211,38.957499999999996,27.75629984741211Q38.8822,27.61309984741211,38.784800000000004,27.483899847412108Q38.6874,27.35469984741211,38.570499999999996,27.24279984741211Q38.4537,27.13089984741211,38.3203,27.03929984741211Q38.187,26.94759984741211,38.0407,26.878599847412108Q37.894400000000005,26.80959984741211,37.7388,26.76499984741211Q37.749300000000005,26.22119984741211,37.7245,25.67479984741211Q37.7239,25.66269984741211,37.7234,25.65199984741211Q37.833200000000005,25.79549984741211,37.966899999999995,25.91709984741211Q38.1005,26.038699847412108,38.2538,26.13429984741211Q38.4071,26.22999984741211,38.5751,26.29659984741211Q38.7431,26.36319984741211,38.9203,26.39869984741211Q39.689099999999996,26.552399847412108,40.8912,26.66169984741211Q43.249700000000004,26.87609984741211,45.5753,26.697199847412108ZM33.4778,29.01859984741211Q33.4812,29.002199847412108,33.4846,28.98559984741211Q33.800399999999996,27.43519984741211,33.7286,25.85639984741211Q33.502300000000005,20.877199847412108,29.5109,17.45599984741211Q25.3655,13.90279984741211,18.32333,13.417139847412109Q16.09165,13.26322984741211,13.84358,13.44429984741211Q14.03345,14.81313984741211,14.4139,16.208099847412107Q15.86791,21.53949984741211,19.47671,25.148299847412108Q22.9379,28.60949984741211,29.1065,29.08399984741211Q31.0974,29.23719984741211,33.121700000000004,29.05309984741211Q33.3073,29.03629984741211,33.4778,29.01859984741211ZM32.0039,41.31249984741211L24.2158,41.31249984741211Q24.215,41.75239984741211,24.2287,42.24519984741211Q24.3208,45.56089984741211,25.154899999999998,48.29059984741211Q27.644199999999998,56.43749984741211,36.125,56.43749984741211Q44.6058,56.43749984741211,47.0951,48.29059984741211Q47.9292,45.56089984741211,48.0213,42.24519984741211Q48.035,41.75239984741211,48.0342,41.31249984741211L36.2145,41.31249984741211Q36.0283,41.781699847412106,35.8416,42.21759984741211Q35.8401,42.22119984741211,35.838499999999996,42.22479984741211L35.838300000000004,42.22529984741211Q35.7607,42.40639984741211,35.6493,42.56879984741211Q35.537800000000004,42.73129984741211,35.3969,42.868799847412106Q35.2559,43.00639984741211,35.0908,43.11389984741211Q34.9257,43.22129984741211,34.7428,43.29439984741211Q34.397400000000005,43.432599847412106,34.0253,43.437299847412106Q34.012699999999995,43.43749984741211,34,43.43749984741211Q33.5895,43.43749984741211,33.212199999999996,43.27579984741211Q33.0863,43.22189984741211,32.969,43.15129984741211Q32.8517,43.080699847412106,32.7451,42.99479984741211Q32.6385,42.90889984741211,32.5446,42.80919984741211Q32.4507,42.70959984741211,32.3712,42.59809984741211Q32.291799999999995,42.48659984741211,32.2282,42.36529984741211Q32.164699999999996,42.24399984741211,32.118300000000005,42.11519984741211Q32.0719,41.98639984741211,32.0435,41.85249984741211Q32.015100000000004,41.71849984741211,32.0052,41.581999847412106Q32,41.50979984741211,32,41.43749984741211Q32,41.37489984741211,32.0039,41.31249984741211ZM59.9611,9.83313984741211Q58.5071,15.16449984741211,54.8983,18.77329984741211Q51.4371,22.23449984741211,45.2685,22.70899984741211Q43.2776,22.86219984741211,41.253299999999996,22.67809984741211Q41.0677,22.66129984741211,40.8972,22.64359984741211Q40.8939,22.62739984741211,40.8904,22.61059984741211Q40.574600000000004,21.06019984741211,40.6464,19.48139984741211Q40.872699999999995,14.50219984741211,44.8641,11.08101984741211Q49.0095,7.527799847412109,56.0517,7.042139847412109Q58.2834,6.888229847412109,60.5314,7.069299847412109Q60.3415,8.43813984741211,59.9611,9.83313984741211Z" fill-rule="evenodd" fill="url(#master_svg1_0_30)" fill-opacity="1"/></g></g></svg>