<svg xmlns="http://www.w3.org/2000/svg" xmlns:xlink="http://www.w3.org/1999/xlink" fill="none" version="1.1" width="68" height="68" viewBox="0 0 68 68"><defs><clipPath id="master_svg0_0_243"><rect x="0" y="0" width="68" height="68" rx="0"/></clipPath><linearGradient x1="0" y1="0.5" x2="1" y2="0.5" id="master_svg1_0_30"><stop offset="0%" stop-color="#2AF598" stop-opacity="1"/><stop offset="100%" stop-color="#009EFD" stop-opacity="1"/></linearGradient><linearGradient x1="0" y1="0.5" x2="1" y2="0.5" id="master_svg2_0_30"><stop offset="0%" stop-color="#2AF598" stop-opacity="1"/><stop offset="100%" stop-color="#009EFD" stop-opacity="1"/></linearGradient><linearGradient x1="0" y1="0.5" x2="1" y2="0.5" id="master_svg3_0_30"><stop offset="0%" stop-color="#2AF598" stop-opacity="1"/><stop offset="100%" stop-color="#009EFD" stop-opacity="1"/></linearGradient><linearGradient x1="0" y1="0.5" x2="1" y2="0.5" id="master_svg4_0_30"><stop offset="0%" stop-color="#2AF598" stop-opacity="1"/><stop offset="100%" stop-color="#009EFD" stop-opacity="1"/></linearGradient><linearGradient x1="0" y1="0.5" x2="1" y2="0.5" id="master_svg5_0_30"><stop offset="0%" stop-color="#2AF598" stop-opacity="1"/><stop offset="100%" stop-color="#009EFD" stop-opacity="1"/></linearGradient><linearGradient x1="0" y1="0.5" x2="1" y2="0.5" id="master_svg6_0_30"><stop offset="0%" stop-color="#2AF598" stop-opacity="1"/><stop offset="100%" stop-color="#009EFD" stop-opacity="1"/></linearGradient><linearGradient x1="0" y1="0.5" x2="1" y2="0.5" id="master_svg7_0_30"><stop offset="0%" stop-color="#2AF598" stop-opacity="1"/><stop offset="100%" stop-color="#009EFD" stop-opacity="1"/></linearGradient><linearGradient x1="0" y1="0.5" x2="1" y2="0.5" id="master_svg8_0_30"><stop offset="0%" stop-color="#2AF598" stop-opacity="1"/><stop offset="100%" stop-color="#009EFD" stop-opacity="1"/></linearGradient><linearGradient x1="0" y1="0.5" x2="1" y2="0.5" id="master_svg9_0_30"><stop offset="0%" stop-color="#2AF598" stop-opacity="1"/><stop offset="100%" stop-color="#009EFD" stop-opacity="1"/></linearGradient><linearGradient x1="0" y1="0.5" x2="1" y2="0.5" id="master_svga_0_30"><stop offset="0%" stop-color="#2AF598" stop-opacity="1"/><stop offset="100%" stop-color="#009EFD" stop-opacity="1"/></linearGradient><linearGradient x1="0" y1="0.5" x2="1" y2="0.5" id="master_svgb_0_30"><stop offset="0%" stop-color="#2AF598" stop-opacity="1"/><stop offset="100%" stop-color="#009EFD" stop-opacity="1"/></linearGradient><linearGradient x1="0" y1="0.5" x2="1" y2="0.5" id="master_svgc_0_30"><stop offset="0%" stop-color="#2AF598" stop-opacity="1"/><stop offset="100%" stop-color="#009EFD" stop-opacity="1"/></linearGradient><linearGradient x1="0" y1="0.5" x2="1" y2="0.5" id="master_svgd_0_30"><stop offset="0%" stop-color="#2AF598" stop-opacity="1"/><stop offset="100%" stop-color="#009EFD" stop-opacity="1"/></linearGradient><linearGradient x1="0" y1="0.5" x2="1" y2="0.5" id="master_svge_0_30"><stop offset="0%" stop-color="#2AF598" stop-opacity="1"/><stop offset="100%" stop-color="#009EFD" stop-opacity="1"/></linearGradient><linearGradient x1="0" y1="0.5" x2="1" y2="0.5" id="master_svgf_0_30"><stop offset="0%" stop-color="#2AF598" stop-opacity="1"/><stop offset="100%" stop-color="#009EFD" stop-opacity="1"/></linearGradient><linearGradient x1="0" y1="0.5" x2="1" y2="0.5" id="master_svgg_0_30"><stop offset="0%" stop-color="#2AF598" stop-opacity="1"/><stop offset="100%" stop-color="#009EFD" stop-opacity="1"/></linearGradient><linearGradient x1="0" y1="0.5" x2="1" y2="0.5" id="master_svgh_0_30"><stop offset="0%" stop-color="#2AF598" stop-opacity="1"/><stop offset="100%" stop-color="#009EFD" stop-opacity="1"/></linearGradient></defs><g clip-path="url(#master_svg0_0_243)"><g><g><path d="M34,4.25C34,4.25,34,8.7125,34,8.7125C34,8.7125,34,4.25,34,4.25Z" fill-rule="evenodd" fill="url(#master_svg1_0_30)" fill-opacity="1"/></g><g><path d="M32,4.25L32,8.7125Q32,8.810749999999999,32.00963,8.908529999999999Q32.01926,9.006319999999999,32.03843,9.10268Q32.0576,9.19905,32.08612,9.29307Q32.11464,9.38709,32.15224,9.47787Q32.18984,9.56864,32.23616,9.65529Q32.28247,9.74194,32.33706,9.823640000000001Q32.39165,9.90533,32.45398,9.981290000000001Q32.51631,10.05724,32.58579,10.12671Q32.65526,10.19619,32.73121,10.25852Q32.80716,10.32085,32.88886,10.375440000000001Q32.97055,10.43003,33.057207,10.47634Q33.143859,10.52266,33.234633,10.56026Q33.325408,10.59786,33.419431,10.626380000000001Q33.513454,10.6549,33.609819,10.67407Q33.706185,10.69324,33.803966,10.70287Q33.9017463,10.7125,34,10.7125Q34.0982537,10.7125,34.196034,10.70287Q34.293815,10.69324,34.390181,10.67407Q34.486546,10.6549,34.580569,10.626380000000001Q34.674592,10.59786,34.765367,10.56026Q34.856141,10.52266,34.942793,10.47634Q35.02945,10.43003,35.11114,10.375440000000001Q35.19284,10.32085,35.26879,10.25852Q35.34474,10.19619,35.41421,10.12671Q35.48369,10.05724,35.54602,9.981290000000001Q35.60835,9.90533,35.66294,9.823640000000001Q35.71753,9.74194,35.76384,9.65529Q35.81016,9.56864,35.84776,9.47787Q35.88536,9.38709,35.91388,9.29307Q35.9424,9.19905,35.96157,9.10268Q35.98074,9.006319999999999,35.99037,8.908529999999999Q36,8.810749999999999,36,8.7125L36,4.25Q36,4.1517463,35.99037,4.053966Q35.98074,3.956185,35.96157,3.859819Q35.9424,3.763454,35.91388,3.669431Q35.88536,3.575408,35.84776,3.484633Q35.81016,3.393859,35.76384,3.307207Q35.71753,3.2205500000000002,35.66294,3.13886Q35.60835,3.05716,35.54602,2.98121Q35.48369,2.90526,35.41421,2.8357900000000003Q35.34474,2.76631,35.26879,2.70398Q35.19284,2.6416500000000003,35.11114,2.58706Q35.02945,2.53247,34.942793,2.48616Q34.856141,2.4398400000000002,34.765367,2.40224Q34.674592,2.36464,34.580569,2.33612Q34.486546,2.3076,34.390181,2.28843Q34.293815,2.26926,34.196034,2.25963Q34.0982537,2.25,34,2.25Q33.9017463,2.25,33.803966,2.25963Q33.706185,2.26926,33.609819,2.28843Q33.513454,2.3076,33.419431,2.33612Q33.325408,2.36464,33.234633,2.40224Q33.143859,2.4398400000000002,33.057207,2.48616Q32.97055,2.53247,32.88886,2.58706Q32.80716,2.6416500000000003,32.73121,2.70398Q32.65526,2.76631,32.58579,2.8357900000000003Q32.51631,2.90526,32.45398,2.98121Q32.39165,3.05716,32.33706,3.13886Q32.28247,3.2205500000000002,32.23616,3.307207Q32.18984,3.393859,32.15224,3.484633Q32.11464,3.575408,32.08612,3.669431Q32.0576,3.763454,32.03843,3.859819Q32.01926,3.956185,32.00963,4.053966Q32,4.1517463,32,4.25Z" fill-rule="evenodd" fill="url(#master_svg2_0_30)" fill-opacity="1"/></g><g><path d="M55.03749836547851,12.962499618530273C55.03749836547851,12.962499618530273,51.881168365478516,16.118829618530274,51.881168365478516,16.118829618530274C51.881168365478516,16.118829618530274,55.03607836547852,12.963916858530274,55.03607836547852,12.963916858530274C55.03607836547852,12.963916858530274,55.03749836547851,12.962499618530273,55.03749836547851,12.962499618530273Z" fill-rule="evenodd" fill="url(#master_svg3_0_30)" fill-opacity="1"/></g><g><path d="M53.62327836547851,11.548289618530273L50.46695836547852,14.704619618530273Q50.327668365478516,14.843909618530274,50.21822836547852,15.007689618530273Q50.10878836547852,15.171479618530274,50.033408365478515,15.353469618530273Q49.95802836547851,15.535459618530274,49.919598365478514,15.728649618530273Q49.881168365478516,15.921849618530274,49.881168365478516,16.118829618530274Q49.881168365478516,16.315819618530274,49.919598365478514,16.509019618530274Q49.95802836547851,16.702209618530272,50.033408365478515,16.884199618530275Q50.10878836547852,17.066189618530274,50.21822836547852,17.229979618530272Q50.327668365478516,17.393759618530275,50.46695836547852,17.533049618530274Q50.606248365478514,17.672339618530273,50.77002836547852,17.781769618530273Q50.93381436547852,17.891209618530272,51.115802365478515,17.96658961853027Q51.29779036547851,18.041979618530274,51.490988365478515,18.080399618530272Q51.68418536547851,18.118829618530274,51.881168365478516,18.118829618530274Q52.07815136547852,18.118829618530274,52.271349365478514,18.080399618530272Q52.464547365478516,18.041969618530274,52.64653636547852,17.96658961853027Q52.828524365478515,17.891209618530272,52.992308365478515,17.781769618530273Q53.15609836547851,17.672329618530274,53.29537836547851,17.533049618530274L56.451478365478515,14.376949618530274L56.45170836547852,14.376709618530274Q56.59099836547851,14.237419618530273,56.70043836547852,14.073639618530274Q56.80987836547852,13.909853618530274,56.885258365478514,13.727865618530274Q56.960638365478516,13.545877618530273,56.999068365478514,13.352679618530274Q57.03749836547851,13.159482618530273,57.03749836547851,12.96249961865235Q57.03749836547851,12.765516618530274,56.999068365478514,12.572318618530273Q56.960638365478516,12.379120618530273,56.885258365478514,12.197131618530273Q56.80987836547852,12.015143618530274,56.70043836547852,11.851359618530273Q56.59099836547851,11.687569618530274,56.45170836547852,11.548289618530273Q56.312418365478514,11.408999618530274,56.14863836547852,11.299559618530273Q55.98484836547851,11.190119618530273,55.802858365478514,11.114739618530272Q55.62087836547852,11.039359618530273,55.42767836547851,11.000929618530273Q55.234478365478516,10.962499618530273,55.03749836547851,10.962499618530273Q54.84050836547851,10.962499618530273,54.64731836547852,11.000929618530273Q54.454118365478514,11.039359618530273,54.272128365478515,11.114739618530272Q54.090138365478516,11.190119618530273,53.926358365478514,11.299559618530273Q53.762568365478515,11.408999618530274,53.62327836547851,11.548289618530273Z" fill-rule="evenodd" fill="url(#master_svg4_0_30)" fill-opacity="1"/></g><g><path d="M63.74999847412109,34C63.74999847412109,34,59.287498474121094,34,59.287498474121094,34C59.287498474121094,34,63.74999847412109,34,63.74999847412109,34Z" fill-rule="evenodd" fill="url(#master_svg5_0_30)" fill-opacity="1"/></g><g><path d="M63.74999847412109,32L59.287498474121094,32Q59.18924477412109,32,59.091464474121096,32.00963Q58.99368347412109,32.01926,58.897317474121095,32.03843Q58.8009524741211,32.0576,58.7069294741211,32.08612Q58.6129064741211,32.11464,58.522131474121096,32.15224Q58.43135747412109,32.18984,58.34470547412109,32.23616Q58.2580484741211,32.28247,58.176358474121095,32.33706Q58.0946584741211,32.39165,58.01870847412109,32.45398Q57.94275847412109,32.51631,57.8732884741211,32.58579Q57.80380847412109,32.65526,57.741478474121095,32.73121Q57.67914847412109,32.80716,57.624558474121095,32.88886Q57.5699684741211,32.97055,57.52365847412109,33.057207Q57.47733847412109,33.143859,57.43973847412109,33.234633Q57.402138474121095,33.325408,57.373618474121095,33.419431Q57.345098474121095,33.513454,57.32592847412109,33.609819Q57.3067584741211,33.706185,57.297128474121095,33.803966Q57.287498474121094,33.9017463,57.287498474121094,34Q57.287498474121094,34.0982537,57.297128474121095,34.196034Q57.3067584741211,34.293815,57.32592847412109,34.390181Q57.345098474121095,34.486546,57.373618474121095,34.580569Q57.402138474121095,34.674592,57.43973847412109,34.765367Q57.47733847412109,34.856141,57.52365847412109,34.942793Q57.5699684741211,35.02945,57.624558474121095,35.11114Q57.67914847412109,35.19284,57.741478474121095,35.26879Q57.80380847412109,35.34474,57.8732884741211,35.41421Q57.94275847412109,35.48369,58.01870847412109,35.54602Q58.0946584741211,35.60835,58.176358474121095,35.66294Q58.2580484741211,35.71753,58.34470547412109,35.76384Q58.43135747412109,35.81016,58.522131474121096,35.84776Q58.6129064741211,35.88536,58.7069294741211,35.91388Q58.8009524741211,35.9424,58.897317474121095,35.96157Q58.99368347412109,35.98074,59.091464474121096,35.99037Q59.18924477412109,36,59.287498474121094,36L63.74999847412109,36Q63.848258474121096,36,63.946038474121096,35.99037Q64.0438184741211,35.98074,64.1401784741211,35.96157Q64.2365484741211,35.9424,64.3305684741211,35.91388Q64.4245884741211,35.88536,64.51536847412109,35.84776Q64.6061384741211,35.81016,64.69278847412109,35.76384Q64.7794484741211,35.71753,64.86113847412109,35.66294Q64.94283847412109,35.60835,65.0187884741211,35.54602Q65.0947384741211,35.48369,65.1642184741211,35.41421Q65.2336884741211,35.34474,65.2960184741211,35.26879Q65.3583484741211,35.19284,65.41293847412109,35.11114Q65.4675284741211,35.02945,65.51383847412109,34.942793Q65.5601584741211,34.856141,65.5977584741211,34.765367Q65.63535847412109,34.674592,65.66387847412109,34.580569Q65.69239847412109,34.486546,65.7115684741211,34.390181Q65.7307384741211,34.293815,65.7403684741211,34.196034Q65.7499984741211,34.0982537,65.7499984741211,34Q65.7499984741211,33.9017463,65.7403684741211,33.803966Q65.7307384741211,33.706185,65.7115684741211,33.609819Q65.69239847412109,33.513454,65.66387847412109,33.419431Q65.63535847412109,33.325408,65.5977584741211,33.234633Q65.5601584741211,33.143859,65.51383847412109,33.057207Q65.4675284741211,32.97055,65.41293847412109,32.88886Q65.3583484741211,32.80716,65.2960184741211,32.73121Q65.2336884741211,32.65526,65.1642184741211,32.58579Q65.0947384741211,32.51631,65.0187884741211,32.45398Q64.94283847412109,32.39165,64.86113847412109,32.33706Q64.7794484741211,32.28247,64.69279847412109,32.23616Q64.6061384741211,32.18984,64.51536847412109,32.15224Q64.4245884741211,32.11464,64.3305684741211,32.08612Q64.2365484741211,32.0576,64.1401784741211,32.03843Q64.0438184741211,32.01926,63.946038474121096,32.00963Q63.848258474121096,32,63.74999847412109,32Z" fill-rule="evenodd" fill="url(#master_svg6_0_30)" fill-opacity="1"/></g><g><path d="M55.03749836547851,55.03749836547851C55.03749836547851,55.03749836547851,51.881168365478516,51.881168365478516,51.881168365478516,51.881168365478516C51.881168365478516,51.881168365478516,55.03607836547852,55.03607836547852,55.03607836547852,55.03607836547852C55.03607836547852,55.03607836547852,55.03749836547851,55.03749836547851,55.03749836547851,55.03749836547851Z" fill-rule="evenodd" fill="url(#master_svg7_0_30)" fill-opacity="1"/></g><g><path d="M53.29561836547852,50.46718836547851L53.29537836547851,50.46695836547852Q53.15609836547851,50.327668365478516,52.992308365478515,50.21822836547852Q52.82852336547852,50.10878836547852,52.64653536547851,50.033408365478515Q52.46454636547852,49.95802836547851,52.271349365478514,49.919598365478514Q52.07815136547852,49.881168365478516,51.881168365478516,49.881168365478516Q51.68418536547851,49.881168365478516,51.49098736547852,49.919598365478514Q51.29779036547851,49.95802836547851,51.11580136547852,50.033408365478515Q50.933813365478514,50.10878836547852,50.77002836547852,50.21822836547852Q50.60623836547852,50.327668365478516,50.46695836547852,50.46695836547852Q50.327668365478516,50.60623836547852,50.21822836547852,50.77002836547852Q50.10878836547852,50.933813365478514,50.033408365478515,51.11580136547852Q49.95802836547851,51.29779036547851,49.919598365478514,51.49098736547852Q49.881168365478516,51.68418536547851,49.881168365478516,51.881168365478516Q49.881168365478516,52.07815136547852,49.919598365478514,52.271349365478514Q49.95802836547851,52.46454636547852,50.033408365478515,52.64653536547851Q50.10878836547852,52.82852336547852,50.21822836547852,52.992308365478515Q50.327668365478516,53.15609836547851,50.46695836547852,53.29537836547851L53.62259836547852,56.451028365478514L53.623288365478516,56.45170836547852Q53.762568365478515,56.59099836547851,53.926358365478514,56.70043836547852Q54.090138365478516,56.80987836547852,54.272128365478515,56.885258365478514Q54.454118365478514,56.960638365478516,54.64731836547852,56.999068365478514Q54.840518365478516,57.03749836547851,55.03749836547851,57.03749836547851Q55.08555836547852,57.03749836547851,55.13356836547852,57.03518836547852Q55.318218365478515,57.02630836547851,55.498108365478515,56.983738365478516Q55.677998365478516,56.941158365478515,55.84703836547852,56.86633836547851Q56.01607836547851,56.791508365478514,56.16853836547852,56.68696836547851Q56.320998365478516,56.58242836547851,56.45170836547852,56.45170836547852Q56.59099836547851,56.312418365478514,56.70043836547852,56.14863836547852Q56.80987836547852,55.98484836547851,56.885258365478514,55.80286836547852Q56.960638365478516,55.62087836547852,56.999068365478514,55.42767836547851Q57.03749836547851,55.234478365478516,57.03749836547851,55.03749836547851Q57.03749836547851,54.840518365478516,56.999068365478514,54.64731836547852Q56.960638365478516,54.454118365478514,56.885258365478514,54.272128365478515Q56.80987836547852,54.090138365478516,56.70043836547852,53.926358365478514Q56.59099836547851,53.762568365478515,56.45170836547852,53.623288365478516L56.451028365478514,53.62259836547852L53.29561836547852,50.46718836547851Z" fill-rule="evenodd" fill="url(#master_svg8_0_30)" fill-opacity="1"/></g><g><path d="M34,63.74999847412109C34,63.74999847412109,34,59.287498474121094,34,59.287498474121094C34,59.287498474121094,34,63.74999847412109,34,63.74999847412109Z" fill-rule="evenodd" fill="url(#master_svg9_0_30)" fill-opacity="1"/></g><g><path d="M36,63.74999847412109L36,59.287498474121094Q36,59.18924477412109,35.99037,59.091464474121096Q35.98074,58.99368347412109,35.96157,58.897317474121095Q35.9424,58.8009524741211,35.91388,58.7069294741211Q35.88536,58.6129064741211,35.84776,58.522131474121096Q35.81016,58.43135747412109,35.76384,58.34470547412109Q35.71753,58.2580484741211,35.66294,58.176358474121095Q35.60835,58.0946584741211,35.54602,58.01870847412109Q35.48369,57.94275847412109,35.41421,57.8732884741211Q35.34474,57.80380847412109,35.26879,57.741478474121095Q35.19284,57.67914847412109,35.11114,57.624558474121095Q35.02945,57.5699684741211,34.942793,57.52365847412109Q34.856141,57.47733847412109,34.765367,57.43973847412109Q34.674592,57.402138474121095,34.580569,57.373618474121095Q34.486546,57.345098474121095,34.390181,57.32592847412109Q34.293815,57.3067584741211,34.196034,57.297128474121095Q34.0982537,57.287498474121094,34,57.287498474121094Q33.9017463,57.287498474121094,33.803966,57.297128474121095Q33.706185,57.3067584741211,33.609819,57.32592847412109Q33.513454,57.345098474121095,33.419431,57.373618474121095Q33.325408,57.402138474121095,33.234633,57.43973847412109Q33.143859,57.47733847412109,33.057207,57.52365847412109Q32.97055,57.5699684741211,32.88886,57.624558474121095Q32.80716,57.67914847412109,32.73121,57.741478474121095Q32.65526,57.80380847412109,32.58579,57.8732884741211Q32.51631,57.94275847412109,32.45398,58.01870847412109Q32.39165,58.0946584741211,32.33706,58.176358474121095Q32.28247,58.2580484741211,32.23616,58.34470547412109Q32.18984,58.43135747412109,32.15224,58.522131474121096Q32.11464,58.6129064741211,32.08612,58.7069294741211Q32.0576,58.8009524741211,32.03843,58.897317474121095Q32.01926,58.99368347412109,32.00963,59.091464474121096Q32,59.18924477412109,32,59.287498474121094L32,63.74999847412109Q32,63.848258474121096,32.00963,63.946038474121096Q32.01926,64.0438184741211,32.03843,64.1401784741211Q32.0576,64.2365484741211,32.08612,64.3305684741211Q32.11464,64.4245884741211,32.15224,64.51536847412109Q32.18984,64.6061384741211,32.23616,64.69278847412109Q32.28247,64.7794484741211,32.33706,64.86113847412109Q32.39165,64.94283847412109,32.45398,65.0187884741211Q32.51631,65.0947384741211,32.58579,65.1642184741211Q32.65526,65.2336884741211,32.73121,65.2960184741211Q32.80716,65.3583484741211,32.88886,65.41293847412109Q32.97055,65.4675284741211,33.057207,65.51383847412109Q33.143859,65.5601584741211,33.234633,65.5977584741211Q33.325408,65.63535847412109,33.419431,65.66387847412109Q33.513454,65.69239847412109,33.609819,65.7115684741211Q33.706185,65.7307384741211,33.803966,65.7403684741211Q33.9017463,65.7499984741211,34,65.7499984741211Q34.0982537,65.7499984741211,34.196034,65.7403684741211Q34.293815,65.7307384741211,34.390181,65.7115684741211Q34.486546,65.69239847412109,34.580569,65.66387847412109Q34.674592,65.63535847412109,34.765367,65.5977584741211Q34.856141,65.5601584741211,34.942793,65.51383847412109Q35.02945,65.4675284741211,35.11114,65.41293847412109Q35.19284,65.3583484741211,35.26879,65.2960184741211Q35.34474,65.2336884741211,35.41421,65.1642184741211Q35.48369,65.0947384741211,35.54602,65.0187884741211Q35.60835,64.94283847412109,35.66294,64.86113847412109Q35.71753,64.7794484741211,35.76384,64.69279847412109Q35.81016,64.6061384741211,35.84776,64.51536847412109Q35.88536,64.4245884741211,35.91388,64.3305684741211Q35.9424,64.2365484741211,35.96157,64.1401784741211Q35.98074,64.0438184741211,35.99037,63.946038474121096Q36,63.848258474121096,36,63.74999847412109Z" fill-rule="evenodd" fill="url(#master_svga_0_30)" fill-opacity="1"/></g><g><path d="M12.962499618530273,55.03749836547851C12.962499618530273,55.03749836547851,16.118829618530274,51.881168365478516,16.118829618530274,51.881168365478516C16.118829618530274,51.881168365478516,12.963916858530274,55.03607836547852,12.963916858530274,55.03607836547852C12.963916858530274,55.03607836547852,12.962499618530273,55.03749836547851,12.962499618530273,55.03749836547851Z" fill-rule="evenodd" fill="url(#master_svgb_0_30)" fill-opacity="1"/></g><g><path d="M14.376949618530274,56.451478365478515L17.533049618530274,53.29537836547851Q17.672329618530274,53.15609836547851,17.781769618530273,52.992308365478515Q17.891209618530272,52.82852536547851,17.96658961853027,52.64653636547852Q18.041969618530274,52.464548365478514,18.080399618530272,52.27135036547852Q18.118829618530274,52.078152365478516,18.118829618530274,51.88116996705852Q18.118829618530274,51.82939246547851,18.116159618530276,51.777686365478516Q18.106639618530274,51.594008365478516,18.063779618530273,51.41514636547851Q18.020929618530275,51.236285365478516,17.946169618530273,51.068240365478516Q17.871409618530272,50.90019436547851,17.767259618530275,50.748598365478514Q17.663099618530275,50.597008365478516,17.533049618530274,50.46695836547852Q17.393759618530275,50.327668365478516,17.229979618530272,50.21822836547852Q17.066189618530274,50.10878836547852,16.884199618530275,50.033408365478515Q16.702209618530272,49.95802836547851,16.509009618530275,49.919598365478514Q16.315819618530274,49.881168365478516,16.118829618530274,49.881168365478516Q16.070769618530274,49.881168365478516,16.022759618530273,49.88347836547852Q15.838119618530273,49.892358365478515,15.658229618530275,49.93492836547851Q15.478339618530274,49.97750836547851,15.309299618530273,50.052328365478516Q15.140259618530273,50.127158365478515,14.987799618530273,50.231698365478515Q14.835339618530273,50.336238365478515,14.704619618530273,50.46695836547852L11.548289618530273,53.62327836547851Q11.408999618530274,53.762568365478515,11.299559618530273,53.926358365478514Q11.190119618530273,54.090138365478516,11.114739618530272,54.272128365478515Q11.039359618530273,54.454118365478514,11.000929618530273,54.64731836547852Q10.962499618530273,54.84050836547851,10.962499618530273,55.03749836547851Q10.962499618530273,55.08555836547852,10.964809618530273,55.13356836547852Q10.973689618530273,55.318218365478515,11.016259618530274,55.498108365478515Q11.058839618530273,55.677998365478516,11.133659618530274,55.84703836547852Q11.208489618530272,56.01607836547851,11.313029618530273,56.16853836547852Q11.417569618530273,56.320998365478516,11.548289618530273,56.45170836547852Q11.687569618530274,56.59099836547851,11.851359618530273,56.70043836547852Q12.015143618530274,56.80987836547852,12.197131618530273,56.885258365478514Q12.379120618530273,56.960638365478516,12.572318618530273,56.999068365478514Q12.765516618530274,57.03749836547851,12.962499618530273,57.03749836547851Q13.014274718530274,57.03749836547851,13.065981618530273,57.034818365478515Q13.249659618530274,57.02529836547851,13.428521618530274,56.98244836547852Q13.607382618530274,56.939588365478514,13.775427618530273,56.864828365478516Q13.943473618530273,56.79006836547852,14.095069618530273,56.685918365478514Q14.246659618530273,56.58176836547852,14.376709618530274,56.45170836547852L14.376949618530274,56.451478365478515Z" fill-rule="evenodd" fill="url(#master_svgc_0_30)" fill-opacity="1"/></g><g><path d="M4.25,34C4.25,34,8.7125,34,8.7125,34C8.7125,34,4.25,34,4.25,34Z" fill-rule="evenodd" fill="url(#master_svgd_0_30)" fill-opacity="1"/></g><g><path d="M4.25,36L8.7125,36Q8.810749999999999,36,8.908529999999999,35.99037Q9.006319999999999,35.98074,9.10268,35.96157Q9.19905,35.9424,9.29307,35.91388Q9.38709,35.88536,9.47787,35.84776Q9.56864,35.81016,9.65529,35.76384Q9.74194,35.71753,9.823640000000001,35.66294Q9.90533,35.60835,9.981290000000001,35.54602Q10.05724,35.48369,10.12671,35.41421Q10.19619,35.34474,10.25852,35.26879Q10.32085,35.19284,10.375440000000001,35.11114Q10.43003,35.02945,10.47634,34.942793Q10.52266,34.856141,10.56026,34.765367Q10.59786,34.674592,10.626380000000001,34.580569Q10.6549,34.486546,10.67407,34.390181Q10.69324,34.293815,10.70287,34.196034Q10.7125,34.0982537,10.7125,34Q10.7125,33.9017463,10.70287,33.803966Q10.69324,33.706185,10.67407,33.609819Q10.6549,33.513454,10.626380000000001,33.419431Q10.59786,33.325408,10.56026,33.234633Q10.52266,33.143859,10.47634,33.057207Q10.43003,32.97055,10.375440000000001,32.88886Q10.32085,32.80716,10.25852,32.73121Q10.19619,32.65526,10.12671,32.58579Q10.05724,32.51631,9.981290000000001,32.45398Q9.90533,32.39165,9.823640000000001,32.33706Q9.74194,32.28247,9.65529,32.23616Q9.56864,32.18984,9.47787,32.15224Q9.38709,32.11464,9.29307,32.08612Q9.19905,32.0576,9.10268,32.03843Q9.006319999999999,32.01926,8.908529999999999,32.00963Q8.810749999999999,32,8.7125,32L4.25,32Q4.1517463,32,4.053966,32.00963Q3.956185,32.01926,3.859819,32.03843Q3.763454,32.0576,3.669431,32.08612Q3.575408,32.11464,3.484633,32.15224Q3.393859,32.18984,3.307207,32.23616Q3.2205500000000002,32.28247,3.13886,32.33706Q3.05716,32.39165,2.98121,32.45398Q2.90526,32.51631,2.8357900000000003,32.58579Q2.76631,32.65526,2.70398,32.73121Q2.6416500000000003,32.80716,2.58706,32.88886Q2.53247,32.97055,2.48616,33.057207Q2.4398400000000002,33.143859,2.40224,33.234633Q2.36464,33.325408,2.33612,33.419431Q2.3076,33.513454,2.28843,33.609819Q2.26926,33.706185,2.25963,33.803966Q2.25,33.9017463,2.25,34Q2.25,34.0982537,2.25963,34.196034Q2.26926,34.293815,2.28843,34.390181Q2.3076,34.486546,2.33612,34.580569Q2.36464,34.674592,2.40224,34.765367Q2.4398400000000002,34.856141,2.48616,34.942793Q2.53247,35.02945,2.58706,35.11114Q2.6416500000000003,35.19284,2.70398,35.26879Q2.76631,35.34474,2.8357900000000003,35.41421Q2.90526,35.48369,2.98121,35.54602Q3.05716,35.60835,3.13886,35.66294Q3.2205500000000002,35.71753,3.307207,35.76384Q3.393859,35.81016,3.484633,35.84776Q3.575408,35.88536,3.669431,35.91388Q3.763454,35.9424,3.859819,35.96157Q3.956185,35.98074,4.053966,35.99037Q4.1517463,36,4.25,36Z" fill-rule="evenodd" fill="url(#master_svge_0_30)" fill-opacity="1"/></g><g><path d="M12.962499618530273,12.962499618530273C12.962499618530273,12.962499618530273,16.118829618530274,16.118829618530274,16.118829618530274,16.118829618530274C16.118829618530274,16.118829618530274,12.963916858530274,12.963916858530274,12.963916858530274,12.963916858530274C12.963916858530274,12.963916858530274,12.962499618530273,12.962499618530273,12.962499618530273,12.962499618530273Z" fill-rule="evenodd" fill="url(#master_svgf_0_30)" fill-opacity="1"/></g><g><path d="M11.548519618530273,14.376949618530274L14.704619618530273,17.533049618530274Q14.843909618530274,17.672339618530273,15.007689618530273,17.781769618530273Q15.171479618530274,17.891209618530272,15.353469618530273,17.96658961853027Q15.535459618530274,18.041969618530274,15.728649618530273,18.080399618530272Q15.921849618530274,18.118829618530274,16.118829618530274,18.118829618530274Q16.315819618530274,18.118829618530274,16.509009618530275,18.080399618530272Q16.702209618530272,18.041969618530274,16.884199618530275,17.96658961853027Q17.066189618530274,17.891209618530272,17.229969618530273,17.781769618530273Q17.393759618530275,17.672339618530273,17.533049618530274,17.533049618530274Q17.672339618530273,17.393759618530275,17.781769618530273,17.229969618530273Q17.891209618530272,17.066189618530274,17.96658961853027,16.884199618530275Q18.041969618530274,16.702209618530272,18.080399618530272,16.509009618530275Q18.118829618530274,16.315819618530274,18.118829618530274,16.118829618530274Q18.118829618530274,15.921849618530274,18.080399618530272,15.728649618530273Q18.041979618530274,15.535459618530274,17.96658961853027,15.353469618530273Q17.891209618530272,15.171479618530274,17.781769618530273,15.007689618530273Q17.672339618530273,14.843909618530274,17.533049618530274,14.704619618530273L14.376709618530274,11.548289618530273Q14.237429618530273,11.408999618530274,14.073639618530274,11.299559618530273Q13.909854618530273,11.190119618530273,13.727866618530273,11.114739618530272Q13.545877618530273,11.039359618530273,13.352680618530274,11.000929618530273Q13.159482618530273,10.962499618530273,12.962499618530273,10.962499618530273Q12.765516618530274,10.962499618530273,12.572318618530273,11.000929618530273Q12.379121618530274,11.039359618530273,12.197132618530274,11.114739618530272Q12.015144618530273,11.190119618530273,11.851359618530273,11.299559618530273Q11.687569618530274,11.408999618530274,11.548289618530273,11.548289618530273Q11.408999618530274,11.687569618530274,11.299559618530273,11.851359618530273Q11.190119618530273,12.015144618530273,11.114739618530272,12.197132618530274Q11.039359618530273,12.379121618530274,11.000929618530273,12.572318618530273Q10.962499618530273,12.765516618530274,10.962499618530273,12.962499618530273Q10.962499618530273,13.159482618530273,11.000929618530273,13.352680618530274Q11.039359618530273,13.545877618530273,11.114739618530272,13.727866618530273Q11.190119618530273,13.909854618530273,11.299559618530273,14.073639618530274Q11.408999618530274,14.237429618530273,11.548289618530273,14.376709618530274L11.548519618530273,14.376949618530274Z" fill-rule="evenodd" fill="url(#master_svgg_0_30)" fill-opacity="1"/></g><g><path d="M16.494037,26.60393Q15,30.136,15,34Q15,37.864000000000004,16.494037,41.396100000000004Q17.936437,44.806,20.56519,47.434799999999996Q23.19395,50.0636,26.60393,51.506Q30.136,53,34,53Q37.864000000000004,53,41.396100000000004,51.506Q44.806,50.0636,47.434799999999996,47.434799999999996Q50.0636,44.806,51.506,41.396100000000004Q53,37.864000000000004,53,34Q53,30.136,51.506,26.60393Q50.0636,23.19396,47.434799999999996,20.56519Q44.8061,17.936437,41.396100000000004,16.494037Q37.864000000000004,15,34,15Q30.136,15,26.60393,16.494037Q23.19395,17.936436,20.56519,20.56519Q17.936435,23.19395,16.494037,26.60393ZM20.17802,39.8378Q19,37.052800000000005,19,34Q19,30.947200000000002,20.17802,28.1622Q21.316499999999998,25.47074,23.39362,23.39362Q25.47074,21.316499999999998,28.1622,20.17802Q30.947200000000002,19,34,19Q37.052800000000005,19,39.8378,20.17802Q42.5293,21.316499999999998,44.6064,23.39362Q46.683499999999995,25.470750000000002,47.822,28.1622Q49,30.947200000000002,49,34Q49,37.052800000000005,47.822,39.8378Q46.683499999999995,42.5293,44.6064,44.6064Q42.5293,46.683499999999995,39.8378,47.822Q37.052800000000005,49,34,49Q30.947200000000002,49,28.1622,47.822Q25.47074,46.683499999999995,23.39362,44.6064Q21.316499999999998,42.5293,20.17802,39.8378Z" fill-rule="evenodd" fill="url(#master_svgh_0_30)" fill-opacity="1"/></g></g></g></svg>