<svg xmlns="http://www.w3.org/2000/svg" xmlns:xlink="http://www.w3.org/1999/xlink" fill="none" version="1.1" width="64" height="64" viewBox="0 0 64 64"><defs><clipPath id="master_svg0_0_135"><rect x="0" y="0" width="64" height="64" rx="0"/></clipPath><linearGradient x1="0" y1="0.5" x2="1" y2="0.5" id="master_svg1_0_137"><stop offset="0%" stop-color="#2AF598" stop-opacity="1"/><stop offset="100%" stop-color="#009EFD" stop-opacity="1"/></linearGradient></defs><g clip-path="url(#master_svg0_0_135)"><g><path d="M31.999966746139528,2.6666667461395264C15.799966746139527,2.6666667461395264,2.6666667461395264,15.799966746139527,2.6666667461395264,31.999966746139528C2.6666667461395264,48.19996674613952,15.799966746139527,61.333366746139525,31.999966746139528,61.333366746139525C48.19996674613952,61.333366746139525,61.333366746139525,48.19996674613952,61.333366746139525,31.999966746139528C61.333366746139525,15.799966746139527,48.19996674613952,2.6666667461395264,31.999966746139528,2.6666667461395264ZM34.666666746139526,42.666666746139526C34.666666746139526,43.37386674613953,34.38566674613953,44.05216674613953,33.88566674613953,44.55226674613952C33.38556674613953,45.052366746139526,32.707266746139524,45.333366746139525,31.999966746139528,45.333366746139525C31.292766746139527,45.333366746139525,30.614466746139527,45.052366746139526,30.114366746139527,44.55226674613952C29.614266746139528,44.05216674613953,29.333366746139525,43.37386674613953,29.333366746139525,42.666666746139526C29.333366746139525,42.666666746139526,29.333366746139525,34.666666746139526,29.333366746139525,34.666666746139526C29.333366746139525,34.666666746139526,21.333366746139525,34.666666746139526,21.333366746139525,34.666666746139526C20.626066746139525,34.666666746139526,19.947766746139525,34.38566674613953,19.447666746139525,33.88566674613953C18.947666746139525,33.38556674613953,18.666666746139526,32.707266746139524,18.666666746139526,31.999966746139528C18.666666746139526,31.292766746139527,18.947666746139525,30.614466746139527,19.447666746139525,30.114366746139527C19.947766746139525,29.614266746139528,20.626066746139525,29.333366746139525,21.333366746139525,29.333366746139525C21.333366746139525,29.333366746139525,29.333366746139525,29.333366746139525,29.333366746139525,29.333366746139525C29.333366746139525,29.333366746139525,29.333366746139525,21.333366746139525,29.333366746139525,21.333366746139525C29.333366746139525,20.626066746139525,29.614266746139528,19.947766746139525,30.114366746139527,19.447666746139525C30.614466746139527,18.947666746139525,31.292766746139527,18.666666746139526,31.999966746139528,18.666666746139526C32.707266746139524,18.666666746139526,33.38556674613953,18.947666746139525,33.88566674613953,19.447666746139525C34.38566674613953,19.947766746139525,34.666666746139526,20.626066746139525,34.666666746139526,21.333366746139525C34.666666746139526,21.333366746139525,34.666666746139526,29.333366746139525,34.666666746139526,29.333366746139525C34.666666746139526,29.333366746139525,42.666666746139526,29.333366746139525,42.666666746139526,29.333366746139525C43.37386674613953,29.333366746139525,44.05216674613953,29.614266746139528,44.55226674613952,30.114366746139527C45.052366746139526,30.614466746139527,45.333366746139525,31.292766746139527,45.333366746139525,31.999966746139528C45.333366746139525,32.707266746139524,45.052366746139526,33.38556674613953,44.55226674613952,33.88566674613953C44.05216674613953,34.38566674613953,43.37386674613953,34.666666746139526,42.666666746139526,34.666666746139526C42.666666746139526,34.666666746139526,34.666666746139526,34.666666746139526,34.666666746139526,34.666666746139526C34.666666746139526,34.666666746139526,34.666666746139526,42.666666746139526,34.666666746139526,42.666666746139526Z" fill-rule="evenodd" fill="url(#master_svg1_0_137)" fill-opacity="1"/></g></g></svg>