<svg xmlns="http://www.w3.org/2000/svg" xmlns:xlink="http://www.w3.org/1999/xlink" fill="none" version="1.1" width="48" height="48" viewBox="0 0 48 48"><defs><clipPath id="master_svg0_0_213"><rect x="0" y="0" width="48" height="48" rx="0"/></clipPath></defs><g clip-path="url(#master_svg0_0_213)"><g><path d="M12,24.000004095458983C11.999999999999998,23.602204095458987,12.158036,23.220644095458987,12.43934,22.939344095458985C12.720645,22.658034095458984,13.10218,22.500004095458983,13.5,22.500004095458983C13.5,22.500004095458983,30.879,22.500004095458983,30.879,22.500004095458983C30.879,22.500004095458983,24.438000000000002,16.062004095458985,24.438000000000002,16.062004095458985C24.1563,15.780344095458984,23.9981,15.398324095458985,23.9981,15.000004095458983C23.9981,14.601674095458984,24.1563,14.219659095458985,24.438000000000002,13.937999095458984C24.7197,13.656339095458984,25.1017,13.498104095458984,25.5,13.498104095458984C25.8983,13.498104095458984,26.2803,13.656339095458984,26.561999999999998,13.937999095458984C26.561999999999998,13.937999095458984,35.562,22.938004095458986,35.562,22.938004095458986C35.7017,23.077334095458987,35.8125,23.242864095458984,35.8881,23.425094095458984C35.9638,23.607304095458986,36.002700000000004,23.802704095458985,36.002700000000004,24.000004095458983C36.002700000000004,24.197304095458982,35.9638,24.392704095458985,35.8881,24.574904095458983C35.8125,24.757104095458985,35.7017,24.922704095458982,35.562,25.062004095458985C35.562,25.062004095458985,26.561999999999998,34.06200409545899,26.561999999999998,34.06200409545899C26.2803,34.34370409545899,25.8983,34.50190409545898,25.5,34.50190409545898C25.1017,34.50190409545898,24.7197,34.34370409545899,24.438000000000002,34.06200409545899C24.1563,33.78030409545899,23.9981,33.39830409545898,23.9981,33.00000409545898C23.9981,32.601704095458985,24.1563,32.21970409545898,24.438000000000002,31.938004095458986C24.438000000000002,31.938004095458986,30.879,25.500004095458983,30.879,25.500004095458983C30.879,25.500004095458983,13.5,25.500004095458983,13.5,25.500004095458983C13.10218,25.500004095458983,12.720645,25.342004095458982,12.43934,25.060704095458984C12.158036,24.779404095458986,11.999999999999998,24.397804095458984,12,24.000004095458983Z" fill-rule="evenodd" fill="#4F4F4F" fill-opacity="1"/></g></g></svg>