<svg xmlns="http://www.w3.org/2000/svg" xmlns:xlink="http://www.w3.org/1999/xlink" fill="none" version="1.1" width="205" height="115.7440185546875" viewBox="0 0 205 115.7440185546875"><defs><filter id="master_svg0_0_49" filterUnits="objectBoundingBox" color-interpolation-filters="sRGB" x="0" y="0" width="205" height="115.74401092529297"><feFlood flood-opacity="0" result="BackgroundImageFix"/><feBlend mode="normal" in="SourceGraphic" in2="BackgroundImageFix" result="shape"/><feGaussianBlur in="BackgroundImage" stdDeviation="2"/><feComposite in2="SourceAlpha" operator="in" result="effect1_foregroundBlur"/><feBlend mode="normal" in="SourceGraphic" in2="effect1_foregroundBlur" result="shape"/></filter></defs><g filter="url(#master_svg0_0_49)"><path d="M0,24L0,79Q0,79.5892,0.028909,80.1776Q0.0578181,80.7661,0.115567,81.3524Q0.173315,81.9387,0.259764,82.5215Q0.346212,83.1043,0.461153,83.6822Q0.576094,84.26,0.71925,84.8315Q0.862406,85.403,1.03343,85.9668Q1.20446,86.5306,1.40294,87.0853Q1.60143,87.6401,1.82689,88.1844Q2.05236,88.7287,2.30426,89.2613Q2.55616,89.7939,2.83389,90.3135Q3.11162,90.8331,3.41451,91.3385Q3.71741,91.8438,4.04473,92.3337Q4.37205,92.8235,4.72302,93.2968Q5.07399,93.77,5.44775,94.2254Q5.82151,94.6809,6.21717,95.1174Q6.61283,95.554,7.02944,95.9706Q7.44604,96.3872,7.88259,96.7828Q8.31913,97.1785,8.77456,97.5523Q9.22999,97.926,9.70322,98.277Q10.1764,98.6279,10.6663,98.9553Q11.1562,99.2826,11.6615,99.5855Q12.1669,99.8884,12.6865,100.166Q13.2061,100.444,13.7387,100.696Q14.2713,100.948,14.8156,101.173Q15.3599,101.399,15.9146,101.597Q16.4694,101.796,17.0332,101.967Q17.597,102.138,18.1685,102.281Q18.74,102.424,19.3178,102.539Q19.8957,102.654,20.4785,102.74Q21.0613,102.827,21.6476,102.884Q22.2339,102.942,22.8224,102.971Q23.4108,103,24,103L89.7121,103Q89.7431,103.055,89.7758,103.109L96.2461,113.813Q96.3818,114.038,96.5455,114.242Q96.7093,114.447,96.8983,114.629Q97.0874,114.81,97.2986,114.966Q97.5097,115.121,97.7394,115.248Q97.969,115.374,98.2132,115.47Q98.4574,115.565,98.7119,115.628Q98.9665,115.691,99.2271,115.719Q99.4876,115.748,99.7497,115.743Q100.012,115.738,100.271,115.699Q100.53,115.659,100.782,115.586Q101.034,115.513,101.274,115.408Q101.514,115.303,101.739,115.167Q101.963,115.032,102.168,114.868Q102.372,114.704,102.554,114.515Q102.736,114.326,102.891,114.115Q103.046,113.904,103.173,113.674L109.053,103L181,103Q181.589,103,182.178,102.971Q182.766,102.942,183.352,102.884Q183.939,102.827,184.522,102.74Q185.104,102.654,185.682,102.539Q186.26,102.424,186.832,102.281Q187.403,102.138,187.967,101.967Q188.531,101.796,189.085,101.597Q189.64,101.399,190.184,101.173Q190.729,100.948,191.261,100.696Q191.794,100.444,192.314,100.166Q192.833,99.8884,193.338,99.5855Q193.844,99.2826,194.334,98.9553Q194.824,98.6279,195.297,98.277Q195.77,97.926,196.225,97.5523Q196.681,97.1785,197.117,96.7828Q197.554,96.3872,197.971,95.9706Q198.387,95.554,198.783,95.1174Q199.178,94.6809,199.552,94.2254Q199.926,93.77,200.277,93.2968Q200.628,92.8235,200.955,92.3337Q201.283,91.8438,201.585,91.3385Q201.888,90.8331,202.166,90.3135Q202.444,89.7939,202.696,89.2613Q202.948,88.7287,203.173,88.1844Q203.399,87.6401,203.597,87.0853Q203.796,86.5306,203.967,85.9668Q204.138,85.403,204.281,84.8315Q204.424,84.26,204.539,83.6822Q204.654,83.1043,204.74,82.5215Q204.827,81.9387,204.884,81.3524Q204.942,80.7661,204.971,80.1776Q205,79.5892,205,79L205,24Q205,23.4108,204.971,22.8224Q204.942,22.2339,204.884,21.6476Q204.827,21.0613,204.74,20.4785Q204.654,19.8957,204.539,19.3178Q204.424,18.74,204.281,18.1685Q204.138,17.597,203.967,17.0332Q203.796,16.4694,203.597,15.9146Q203.399,15.3599,203.173,14.8156Q202.948,14.2713,202.696,13.7387Q202.444,13.2061,202.166,12.6865Q201.888,12.1669,201.585,11.6615Q201.283,11.1562,200.955,10.6663Q200.628,10.1764,200.277,9.70322Q199.926,9.22999,199.552,8.77456Q199.178,8.31913,198.783,7.88259Q198.387,7.44604,197.971,7.02944Q197.554,6.61283,197.117,6.21717Q196.681,5.82151,196.225,5.44775Q195.77,5.07399,195.297,4.72302Q194.824,4.37205,194.334,4.04473Q193.844,3.71741,193.338,3.41451Q192.833,3.11162,192.314,2.83389Q191.794,2.55616,191.261,2.30426Q190.729,2.05236,190.184,1.82689Q189.64,1.60143,189.085,1.40294Q188.531,1.20446,187.967,1.03343Q187.403,0.862406,186.832,0.71925Q186.26,0.576094,185.682,0.461153Q185.104,0.346212,184.522,0.259764Q183.939,0.173315,183.352,0.115567Q182.766,0.0578181,182.178,0.028909Q181.589,0,181,0L24,0Q23.4108,0,22.8224,0.028909Q22.2339,0.0578181,21.6476,0.115567Q21.0613,0.173315,20.4785,0.259764Q19.8957,0.346212,19.3178,0.461153Q18.74,0.576094,18.1685,0.71925Q17.597,0.862406,17.0332,1.03343Q16.4694,1.20446,15.9146,1.40294Q15.3599,1.60143,14.8156,1.82689Q14.2713,2.05236,13.7387,2.30426Q13.2061,2.55616,12.6865,2.83389Q12.1669,3.11162,11.6615,3.41451Q11.1562,3.71741,10.6663,4.04473Q10.1764,4.37205,9.70322,4.72302Q9.22999,5.07399,8.77456,5.44775Q8.31913,5.82151,7.88259,6.21717Q7.44604,6.61283,7.02944,7.02944Q6.61283,7.44604,6.21717,7.88259Q5.82151,8.31913,5.44775,8.77456Q5.07399,9.22999,4.72302,9.70322Q4.37205,10.1764,4.04473,10.6663Q3.71741,11.1562,3.41451,11.6615Q3.11162,12.1669,2.83389,12.6865Q2.55616,13.2061,2.30426,13.7387Q2.05236,14.2713,1.82689,14.8156Q1.60143,15.3599,1.40294,15.9146Q1.20446,16.4694,1.03343,17.0332Q0.862406,17.597,0.71925,18.1685Q0.576094,18.74,0.461153,19.3178Q0.346212,19.8957,0.259764,20.4785Q0.173315,21.0613,0.115567,21.6476Q0.0578181,22.2339,0.028909,22.8224Q0,23.4108,0,24Z" fill-rule="evenodd" fill="#FFFDFD" fill-opacity="0.20000000298023224"/><path d="M109.053,103L181,103Q181.589,103,182.178,102.971Q182.766,102.942,183.352,102.884Q183.939,102.827,184.522,102.74Q185.104,102.654,185.682,102.539Q186.26,102.424,186.832,102.281Q187.403,102.138,187.967,101.967Q188.531,101.796,189.085,101.597Q189.64,101.399,190.184,101.173Q190.729,100.948,191.261,100.696Q191.794,100.444,192.314,100.166Q192.833,99.8884,193.338,99.5855Q193.844,99.2826,194.334,98.9553Q194.824,98.6279,195.297,98.277Q195.77,97.926,196.225,97.5523Q196.681,97.1785,197.117,96.7828Q197.554,96.3872,197.971,95.9706Q198.387,95.554,198.783,95.1174Q199.178,94.6809,199.552,94.2254Q199.926,93.77,200.277,93.2968Q200.628,92.8235,200.955,92.3337Q201.283,91.8438,201.585,91.3385Q201.888,90.8331,202.166,90.3135Q202.444,89.7939,202.696,89.2613Q202.948,88.7287,203.173,88.1844Q203.399,87.6401,203.597,87.0853Q203.796,86.5306,203.967,85.9668Q204.138,85.403,204.281,84.8315Q204.424,84.26,204.539,83.6822Q204.654,83.1043,204.74,82.5215Q204.827,81.9387,204.884,81.3524Q204.942,80.7661,204.971,80.1776Q205,79.5892,205,79L205,24Q205,23.4108,204.971,22.8224Q204.942,22.2339,204.884,21.6476Q204.827,21.0613,204.74,20.4785Q204.654,19.8957,204.539,19.3178Q204.424,18.74,204.281,18.1685Q204.138,17.597,203.967,17.0332Q203.796,16.4694,203.597,15.9146Q203.399,15.3599,203.173,14.8156Q202.948,14.2713,202.696,13.7387Q202.444,13.2061,202.166,12.6865Q201.888,12.1669,201.585,11.6615Q201.283,11.1562,200.955,10.6663Q200.628,10.1764,200.277,9.70322Q199.926,9.22999,199.552,8.77456Q199.178,8.31913,198.783,7.88259Q198.387,7.44604,197.971,7.02944Q197.554,6.61283,197.117,6.21717Q196.681,5.82151,196.225,5.44775Q195.77,5.07399,195.297,4.72302Q194.824,4.37205,194.334,4.04473Q193.844,3.71741,193.338,3.41451Q192.833,3.11162,192.314,2.83389Q191.794,2.55616,191.261,2.30426Q190.729,2.05236,190.184,1.82689Q189.64,1.60143,189.085,1.40294Q188.531,1.20446,187.967,1.03343Q187.403,0.862406,186.832,0.71925Q186.26,0.576094,185.682,0.461153Q185.104,0.346212,184.522,0.259764Q183.939,0.173315,183.352,0.115567Q182.766,0.0578181,182.178,0.028909Q181.589,0,181,0L24,0Q23.4108,0,22.8224,0.028909Q22.2339,0.0578181,21.6476,0.115567Q21.0613,0.173315,20.4785,0.259764Q19.8957,0.346212,19.3178,0.461153Q18.74,0.576094,18.1685,0.71925Q17.597,0.862406,17.0332,1.03343Q16.4694,1.20446,15.9146,1.40294Q15.3599,1.60143,14.8156,1.82689Q14.2713,2.05236,13.7387,2.30426Q13.2061,2.55616,12.6865,2.83389Q12.1669,3.11162,11.6615,3.41451Q11.1562,3.71741,10.6663,4.04473Q10.1764,4.37205,9.70322,4.72302Q9.22999,5.07399,8.77456,5.44775Q8.31913,5.82151,7.88259,6.21717Q7.44604,6.61283,7.02944,7.02944Q6.61283,7.44604,6.21717,7.88259Q5.82151,8.31913,5.44775,8.77456Q5.07399,9.22999,4.72302,9.70322Q4.37205,10.1764,4.04473,10.6663Q3.71741,11.1562,3.41451,11.6615Q3.11162,12.1669,2.83389,12.6865Q2.55616,13.2061,2.30426,13.7387Q2.05236,14.2713,1.82689,14.8156Q1.60143,15.3599,1.40294,15.9146Q1.20446,16.4694,1.03343,17.0332Q0.862406,17.597,0.71925,18.1685Q0.576094,18.74,0.461153,19.3178Q0.346212,19.8957,0.259764,20.4785Q0.173315,21.0613,0.115567,21.6476Q0.0578181,22.2339,0.028909,22.8224Q0,23.4108,0,24L0,79Q0,79.5892,0.028909,80.1776Q0.0578181,80.7661,0.115567,81.3524Q0.173315,81.9387,0.259764,82.5215Q0.346212,83.1043,0.461153,83.6822Q0.576094,84.26,0.71925,84.8315Q0.862406,85.403,1.03343,85.9668Q1.20446,86.5306,1.40294,87.0853Q1.60143,87.6401,1.82689,88.1844Q2.05236,88.7287,2.30426,89.2613Q2.55616,89.7939,2.83389,90.3135Q3.11162,90.8331,3.41451,91.3385Q3.71741,91.8438,4.04473,92.3337Q4.37205,92.8235,4.72302,93.2968Q5.07399,93.77,5.44775,94.2254Q5.82151,94.6809,6.21717,95.1174Q6.61283,95.554,7.02944,95.9706Q7.44604,96.3872,7.88259,96.7828Q8.31913,97.1785,8.77456,97.5523Q9.22999,97.926,9.70322,98.277Q10.1764,98.6279,10.6663,98.9553Q11.1562,99.2826,11.6615,99.5855Q12.1669,99.8884,12.6865,100.166Q13.2061,100.444,13.7387,100.696Q14.2713,100.948,14.8156,101.173Q15.3599,101.399,15.9146,101.597Q16.4694,101.796,17.0332,101.967Q17.597,102.138,18.1685,102.281Q18.74,102.424,19.3178,102.539Q19.8957,102.654,20.4785,102.74Q21.0613,102.827,21.6476,102.884Q22.2339,102.942,22.8224,102.971Q23.4108,103,24,103L89.7121,103Q89.7431,103.055,89.7758,103.109L96.2461,113.813Q96.3818,114.038,96.5455,114.242Q96.7093,114.447,96.8983,114.629Q97.0874,114.81,97.2986,114.966Q97.5097,115.121,97.7394,115.248Q97.969,115.374,98.2132,115.47Q98.4574,115.565,98.7119,115.628Q98.9665,115.691,99.2271,115.719Q99.4876,115.748,99.7497,115.743Q100.012,115.738,100.271,115.699Q100.53,115.659,100.782,115.586Q101.034,115.513,101.274,115.408Q101.514,115.303,101.739,115.167Q101.963,115.032,102.168,114.868Q102.372,114.704,102.554,114.515Q102.736,114.326,102.891,114.115Q103.046,113.904,103.173,113.674L109.053,103ZM1,79L1,24Q1,19.6129,2.61487,15.5338Q4.36827,11.1048,7.73654,7.73654Q11.1048,4.36827,15.5338,2.61487Q19.6129,1,24,1L181,1Q185.387,1,189.466,2.61487Q193.895,4.36826,197.263,7.73654Q200.632,11.1049,202.385,15.5338Q204,19.613,204,24L204,79Q204,83.387,202.385,87.4662Q200.632,91.8951,197.263,95.2635Q193.895,98.6318,189.466,100.385Q185.387,102,181,102L108.462,102L102.297,113.191Q101.909,113.896,101.221,114.311Q100.533,114.727,99.7296,114.743Q98.9259,114.76,98.2219,114.372Q97.5178,113.984,97.1019,113.296L90.6317,102.592Q90.6072,102.551,90.5839,102.51L90.2972,102L24,102Q19.6129,102,15.5338,100.385Q11.1048,98.6317,7.73654,95.2635Q4.36827,91.8952,2.61487,87.4662Q1,83.3871,1,79Z" fill-rule="evenodd" fill="#FFFFFF" fill-opacity="1"/></g></svg>