<svg xmlns="http://www.w3.org/2000/svg" xmlns:xlink="http://www.w3.org/1999/xlink" fill="none" version="1.1" width="84" height="84" viewBox="0 0 84 84"><defs><clipPath id="master_svg0_0_102"><rect x="0" y="0" width="84" height="84" rx="0"/></clipPath><linearGradient x1="0" y1="0.5" x2="1" y2="0.5" id="master_svg1_0_30"><stop offset="0%" stop-color="#2AF598" stop-opacity="1"/><stop offset="100%" stop-color="#009EFD" stop-opacity="1"/></linearGradient></defs><g clip-path="url(#master_svg0_0_102)"><g><path d="M69.783,27.999967251968386C69.783,27.999967251968386,73.5,27.999967251968386,73.5,27.999967251968386C75.3565,27.999967251968386,77.137,28.737467251968383,78.4497,30.050267251968386C79.7625,31.362967251968385,80.5,33.14346725196839,80.5,34.999967251968386C80.5,34.999967251968386,80.5,48.999967251968386,80.5,48.999967251968386C80.5,50.85646725196838,79.7625,52.636967251968386,78.4497,53.94976725196838C77.137,55.26246725196838,75.3565,55.999967251968386,73.5,55.999967251968386C73.5,55.999967251968386,69.783,55.999967251968386,69.783,55.999967251968386C68.9297,62.76656725196838,65.63640000000001,68.98916725196838,60.5211,73.49996725196839C55.4058,78.01086725196838,48.8201,80.49986725196838,42,80.49996725196839C42,80.49996725196839,42,73.49996725196839,42,73.49996725196839C47.5695,73.49996725196839,52.911,71.28746725196838,56.8492,67.34926725196839C60.7875,63.41096725196839,63,58.06956725196839,63,52.499967251968386C63,52.499967251968386,63,31.499967251968386,63,31.499967251968386C63,25.930467251968384,60.7875,20.589067251968384,56.8492,16.650767251968382C52.911,12.712497251968383,47.5695,10.499997251968384,42,10.499997251968384C36.4305,10.499997251968384,31.089,12.712497251968383,27.1508,16.650767251968382C23.2125,20.589067251968384,21,25.930467251968384,21,31.499967251968386C21,31.499967251968386,21,55.999967251968386,21,55.999967251968386C21,55.999967251968386,10.5,55.999967251968386,10.5,55.999967251968386C8.64348,55.999967251968386,6.86301,55.26246725196838,5.55025,53.94976725196838C4.237498,52.636967251968386,3.500000000000001,50.85646725196838,3.5,48.999967251968386C3.5,48.999967251968386,3.5,34.999967251968386,3.5,34.999967251968386C3.5,33.14346725196839,4.237498,31.362967251968385,5.55025,30.050267251968386C6.86301,28.737467251968383,8.64348,27.999967251968386,10.5,27.999967251968386C10.5,27.999967251968386,14.217,27.999967251968386,14.217,27.999967251968386C15.0711,21.234167251968383,18.364800000000002,15.012467251968383,23.48,10.502367251968383C28.5952,5.992277251968384,35.1804,3.5037672519683825,42,3.503767251968384C48.8196,3.5037672519683807,55.4048,5.992277251968384,60.52,10.502367251968383C65.6352,15.012467251968383,68.9289,21.234167251968383,69.783,27.999967251968386C69.783,27.999967251968386,69.783,27.999967251968386,69.783,27.999967251968386ZM10.5,34.999967251968386C10.5,34.999967251968386,10.5,48.999967251968386,10.5,48.999967251968386C10.5,48.999967251968386,14,48.999967251968386,14,48.999967251968386C14,48.999967251968386,14,34.999967251968386,14,34.999967251968386C14,34.999967251968386,10.5,34.999967251968386,10.5,34.999967251968386ZM70,34.999967251968386C70,34.999967251968386,70,48.999967251968386,70,48.999967251968386C70,48.999967251968386,73.5,48.999967251968386,73.5,48.999967251968386C73.5,48.999967251968386,73.5,34.999967251968386,73.5,34.999967251968386C73.5,34.999967251968386,70,34.999967251968386,70,34.999967251968386ZM27.16,55.24746725196838C27.16,55.24746725196838,30.87,49.31146725196838,30.87,49.31146725196838C34.205799999999996,51.40116725196838,38.0638,52.506367251968385,42,52.499967251968386C45.9362,52.506367251968385,49.7942,51.40116725196838,53.13,49.31146725196838C53.13,49.31146725196838,56.84,55.24746725196838,56.84,55.24746725196838C52.3924,58.033967251968384,47.2484,59.508067251968384,42,59.499967251968386C36.7516,59.508067251968384,31.6076,58.033967251968384,27.16,55.24746725196838Z" fill="url(#master_svg1_0_30)" fill-opacity="1"/></g></g></svg>