<svg xmlns="http://www.w3.org/2000/svg" xmlns:xlink="http://www.w3.org/1999/xlink" fill="none" version="1.1" width="68" height="68" viewBox="0 0 68 68"><defs><clipPath id="master_svg0_0_269"><rect x="0" y="0" width="68" height="68" rx="0"/></clipPath><linearGradient x1="0" y1="0.5" x2="1" y2="0.5" id="master_svg1_0_30"><stop offset="0%" stop-color="#2AF598" stop-opacity="1"/><stop offset="100%" stop-color="#009EFD" stop-opacity="1"/></linearGradient></defs><g clip-path="url(#master_svg0_0_269)"><g><path d="M41.9088330154419,58.760166507720946Q38.1108330154419,60.333366507720946,34.00003301544189,60.333366507720946Q29.889133015441896,60.333366507720946,26.091233015441894,58.760166507720946Q22.293233015441892,57.18706650772095,19.386463015441894,54.28016650772095Q16.479643015441894,51.373366507720945,14.906493015441894,47.57546650772095Q13.333333015441895,43.77756650772095,13.333333015441895,39.66666650772095Q13.333333015441895,33.87836650772095,17.432853015441893,27.591866507720948Q19.107883015441892,25.023366507720947,21.708833015441897,21.98176650772095Q23.283333015441894,20.140566507720948,26.587033015441897,16.58686650772095Q27.015633015441892,16.125766507720947,27.228933015441896,15.896066507720947L34.00003301544189,8.605586507720947L40.770433015441895,15.895366507720947Q40.98783301544189,16.12966650772095,41.4186330154419,16.593266507720948Q44.72153301544189,20.14726650772095,46.2953330154419,21.988366507720947Q48.89513301544189,25.029566507720947,50.569433015441895,27.59746650772095Q54.666633015441896,33.88186650772094,54.666633015441896,39.66666650772095Q54.666633015441896,43.777466507720945,53.09353301544189,47.57546650772095Q51.52033301544189,51.373366507720945,48.613533015441895,54.28016650772095Q45.70673301544189,57.18706650772095,41.9088330154419,58.760166507720946ZM34.00003301544189,64.33336650772094Q38.906533015441894,64.33336650772094,43.439533015441896,62.45566650772095Q47.9725330154419,60.57806650772095,51.4419330154419,57.10866650772095Q54.911433015441894,53.639166507720944,56.789033015441895,49.10616650772095Q58.666633015441896,44.57316650772095,58.666633015441896,39.66666650772095Q58.666633015441896,32.69306650772094,53.92013301544189,25.41286650772095Q52.10423301544189,22.627566507720946,49.33583301544189,19.389166507720947Q47.70803301544189,17.484966507720948,44.348733015441894,13.870236507720946Q43.917233015441894,13.405996507720946,43.702533015441894,13.174576507720946L35.465433015441896,4.305616507720947Q35.398633015441895,4.233626507720947,35.325033015441896,4.1685365077209475Q35.25143301544189,4.103446507720947,35.171733015441895,4.045876507720948Q35.092133015441895,3.9883165077209473,35.0072330154419,3.9388265077209472Q34.92233301544189,3.8893465077209473,34.8330330154419,3.8484165077209473Q34.74373301544189,3.8074965077209475,34.65083301544189,3.7755265077209472Q34.55793301544189,3.7435465077209473,34.4623330154419,3.7208365077209473Q34.366733015441895,3.6981265077209473,34.269333015441894,3.684886507720947Q34.1720330154419,3.6716565077209475,34.07383301544189,3.6680265077209473Q33.97563301544189,3.664406507720947,33.8775330154419,3.6704165077209474Q33.7795330154419,3.6764365077209473,33.68253301544189,3.6920265077209473Q33.5855330154419,3.7076265077209474,33.490433015441894,3.7326565077209475Q33.395433015441895,3.7576865077209476,33.30333301544189,3.7919165077209476Q33.21123301544189,3.826136507720947,33.122933015441895,3.8692265077209473Q33.0346330154419,3.912306507720947,32.951033015441894,3.9638465077209473Q32.86733301544189,4.015376507720948,32.78913301544189,4.074866507720947Q32.710933015441896,4.134346507720947,32.63893301544189,4.201216507720948Q32.584833015441895,4.251486507720947,32.534533015441895,4.305616507720947L24.298033015441895,13.173956507720948Q24.085833015441892,13.402566507720948,23.657533015441892,13.863306507720948Q20.297203015441895,17.477866507720947,18.668743015441894,19.382166507720946Q15.899153015441895,22.620966507720947,14.082333015441895,25.40696650772095Q9.333333015441895,32.68936650772095,9.333333015441895,39.66666650772095Q9.333333015441895,44.57316650772095,11.210971015441894,49.10616650772095Q13.088613015441894,53.639166507720944,16.558033015441893,57.10866650772095Q20.027453015441893,60.57806650772095,24.560433015441895,62.45566650772095Q29.093533015441896,64.33336650772094,34.00003301544189,64.33336650772094Z" fill-rule="evenodd" fill="url(#master_svg1_0_30)" fill-opacity="1"/></g></g></svg>