<svg xmlns="http://www.w3.org/2000/svg" xmlns:xlink="http://www.w3.org/1999/xlink" fill="none" version="1.1" width="68" height="68" viewBox="0 0 68 68"><defs><clipPath id="master_svg0_0_281"><rect x="0" y="0" width="68" height="68" rx="0"/></clipPath><linearGradient x1="0" y1="0.5" x2="1" y2="0.5" id="master_svg1_0_30"><stop offset="0%" stop-color="#2AF598" stop-opacity="1"/><stop offset="100%" stop-color="#009EFD" stop-opacity="1"/></linearGradient></defs><g clip-path="url(#master_svg0_0_281)"><g><path d="M28.57885030883789,8.745514Q26.33333030883789,10.99103,26.33333030883789,14.16667L26.33333030883789,37.1511Q23.18422830883789,39.334900000000005,21.68160430883789,42.9625Q19.949560308837892,47.144,21.12099030883789,51.5159Q22.29241730883789,55.8877,25.88318030883789,58.643Q29.473950308837892,61.3983,33.99996030883789,61.3983Q38.52606030883789,61.3983,42.116860308837886,58.643Q45.70756030883789,55.8877,46.87906030883789,51.5159Q48.05046030883789,47.144,46.318360308837896,42.9625Q44.815760308837895,39.334900000000005,41.66666030883789,37.1511L41.66666030883789,14.16667Q41.66666030883789,10.99103,39.42116030883789,8.745513Q37.17566030883789,6.5,33.99996030883789,6.5Q30.82436030883789,6.5,28.57885030883789,8.745514ZM37.66666030883789,23.5L37.66666030883789,14.16667Q37.66666030883789,12.64788,36.59276030883789,11.57394Q35.51876030883789,10.5,33.99996030883789,10.5Q32.48122030883789,10.5,31.40727030883789,11.57394Q30.33333030883789,12.64788,30.33333030883789,14.16667L30.33333030883789,23.5L37.66666030883789,23.5ZM30.33333030883789,27.5L30.33333030883789,38.25Q30.33333030883789,38.3811,30.31622030883789,38.5111Q30.29911030883789,38.641,30.26518030883789,38.7676Q30.23126030883789,38.8943,30.18109030883789,39.0154Q30.13093030883789,39.1365,30.06538030883789,39.25Q29.99984030883789,39.3635,29.92004030883789,39.4675Q29.840240308837892,39.5715,29.74755030883789,39.6642Q29.65485030883789,39.7569,29.55085030883789,39.8367Q29.44686030883789,39.9165,29.33333030883789,39.9821Q26.58955030883789,41.5662,25.377120308837892,44.4932Q24.16469030883789,47.4203,24.98469030883789,50.4806Q25.80469030883789,53.5409,28.31823030883789,55.4696Q30.83177030883789,57.3983,33.99996030883789,57.3983Q37.16826030883789,57.3983,39.681760308837895,55.4696Q42.19526030883789,53.5409,43.015260308837895,50.4806Q43.83526030883789,47.4203,42.622860308837886,44.4932Q41.41046030883789,41.5662,38.66666030883789,39.9821Q38.55316030883789,39.9165,38.44916030883789,39.8367Q38.34516030883789,39.7569,38.25246030883789,39.6642Q38.15976030883789,39.5715,38.07996030883789,39.4675Q38.00016030883789,39.3635,37.93466030883789,39.25Q37.86906030883789,39.1365,37.81886030883789,39.0154Q37.76876030883789,38.8943,37.73486030883789,38.7676Q37.70086030883789,38.641,37.68376030883789,38.5111Q37.66666030883789,38.3811,37.66666030883789,38.25L37.66666030883789,27.5L30.33333030883789,27.5Z" fill-rule="evenodd" fill="url(#master_svg1_0_30)" fill-opacity="1"/></g></g></svg>