<svg xmlns="http://www.w3.org/2000/svg" xmlns:xlink="http://www.w3.org/1999/xlink" fill="none" version="1.1" width="84" height="84" viewBox="0 0 84 84"><defs><clipPath id="master_svg0_0_80"><rect x="0" y="0" width="84" height="84" rx="0"/></clipPath><linearGradient x1="0" y1="0.5" x2="1" y2="0.5" id="master_svg1_0_30"><stop offset="0%" stop-color="#2AF598" stop-opacity="1"/><stop offset="100%" stop-color="#009EFD" stop-opacity="1"/></linearGradient><linearGradient x1="0" y1="0.5" x2="1" y2="0.5" id="master_svg2_0_30"><stop offset="0%" stop-color="#2AF598" stop-opacity="1"/><stop offset="100%" stop-color="#009EFD" stop-opacity="1"/></linearGradient><linearGradient x1="0" y1="0.5" x2="1" y2="0.5" id="master_svg3_0_30"><stop offset="0%" stop-color="#2AF598" stop-opacity="1"/><stop offset="100%" stop-color="#009EFD" stop-opacity="1"/></linearGradient></defs><g clip-path="url(#master_svg0_0_80)"><g><g><path d="M39.6361,10.60374690612793Q40.7411,10.00965690612793,42,10.00965690612793Q43.2952,10.00965690612793,44.4275,10.63847690612793L70.7299,25.24745690612793Q71.08590000000001,25.44535690612793,71.293,25.79745690612793Q71.5,26.14955690612793,71.5,26.55795690612793L71.5,55.38045690612793Q71.49969999999999,56.74185690612793,70.80879999999999,57.91535690612793Q70.118,59.08885690612793,68.92750000000001,59.75005690612793L44.427,73.36525690612793Q43.2952,73.99385690612793,42,73.99385690612793Q40.7048,73.99385690612793,39.572500000000005,73.36505690612793L15.073,59.75025690612793Q13.88256,59.08915690612793,13.191790000000001,57.91645690612793Q12.501,56.74365690612793,12.5,55.38255690612793L12.5,26.55795690612793Q12.49998,26.14945690612793,12.70702,25.79745690612793Q12.91407,25.44535690612793,13.271,25.24695690612793L39.576,10.63846690612793Q39.606300000000005,10.62162690612793,39.6361,10.60374690612793ZM37.5593,7.18302190612793Q37.5945,7.1615399061279295,37.6305,7.14152690612793Q39.6687,6.00965690612793,42,6.00965690612793Q44.3313,6.00965690612793,46.3695,7.14152690612793L72.6721,21.75055690612793Q73.98179999999999,22.47885690612793,74.7409,23.76975690612793Q75.5001,25.06055690612793,75.5,26.55805690612793L75.5,55.38045690612793Q75.4994,57.83215690612793,74.2559,59.94455690612793Q73.0124,62.056856906127926,70.8695,63.24695690612793L46.37,76.86165690612793Q44.3314,77.99385690612793,42,77.99385690612793Q39.6686,77.99385690612793,37.6305,76.86195690612793L13.129999999999999,63.24665690612793Q10.988621,62.05745690612793,9.745215,59.94645690612793Q8.50181,57.83545690612793,8.5,55.38545690612793L8.5,26.55795690612793Q8.49994,25.06055690612793,9.25908,23.76975690612793Q10.018228,22.47885690612793,11.326996,21.75105690612793L37.5593,7.18302190612793Z" fill-rule="evenodd" fill="url(#master_svg1_0_30)" fill-opacity="1"/></g><g><path d="M27.22172,14.00193L58.7213,31.5017Q58.8377,31.5664,58.9445,31.645899999999997Q59.0513,31.7254,59.1466,31.8184Q59.2419,31.9114,59.3241,32.0162Q59.4062,32.120999999999995,59.4737,32.2357Q59.5413,32.3505,59.593,32.4732Q59.6447,32.5959,59.6797,32.7244Q59.7147,32.852900000000005,59.7323,32.984899999999996Q59.75,33.1168,59.75,33.25L59.75,45.5Q59.75,45.598299999999995,59.7404,45.696Q59.7307,45.793800000000005,59.7116,45.8902Q59.6924,45.9865,59.6639,46.080600000000004Q59.6354,46.1746,59.5978,46.2654Q59.5602,46.3561,59.5138,46.4428Q59.4675,46.529399999999995,59.4129,46.6111Q59.3583,46.6928,59.296,46.7688Q59.2337,46.8447,59.1642,46.9142Q59.0947,46.9837,59.0188,47.046Q58.9428,47.1084,58.8611,47.1629Q58.7794,47.2175,58.6928,47.2638Q58.6061,47.310199999999995,58.5154,47.3478Q58.4246,47.385400000000004,58.3306,47.4139Q58.2365,47.4424,58.1402,47.461600000000004Q58.0438,47.4807,57.946,47.4904Q57.8483,47.5,57.75,47.5Q57.6517,47.5,57.554,47.4904Q57.4562,47.4807,57.3598,47.461600000000004Q57.2635,47.4424,57.1694,47.4139Q57.0754,47.385400000000004,56.9846,47.3478Q56.8939,47.310199999999995,56.8072,47.2638Q56.7206,47.2175,56.6389,47.1629Q56.5572,47.1084,56.4812,47.046Q56.4053,46.9837,56.3358,46.9142Q56.2663,46.8447,56.204,46.7688Q56.1416,46.6928,56.0871,46.6111Q56.0325,46.529399999999995,55.9862,46.4428Q55.9398,46.3561,55.9022,46.2654Q55.8646,46.1746,55.8361,46.080600000000004Q55.8076,45.9865,55.7884,45.8902Q55.7693,45.793800000000005,55.7596,45.696Q55.75,45.598299999999995,55.75,45.5L55.75,34.4268L25.27915,17.49856L25.27871,17.49831Q25.162309999999998,17.43365,25.055509999999998,17.35412Q24.94871,17.27459,24.8534,17.18161Q24.75808,17.08862,24.67593,16.98382Q24.59379,16.87902,24.52626,16.76426Q24.45873,16.64949,24.40701,16.526785Q24.35529,16.404081,24.3203,16.275603Q24.28531,16.147125,24.26765,16.015142Q24.25,15.883158,24.25,15.749999999999998Q24.25,15.263532,24.47343,14.831411Q24.48717,14.80485,24.50169,14.778713Q24.59729,14.60662,24.72462,14.45647Q24.85195,14.30632,25.00611,14.18388Q25.16027,14.06144,25.335340000000002,13.97141Q25.51042,13.88137,25.69968,13.8272L25.70056,13.82695Q25.96989,13.75,26.25,13.75Q26.73647,13.75,27.168590000000002,13.97343Q27.195149999999998,13.98716,27.22129,14.00169L27.22172,14.00193ZM30.52552,50.7465L30.526339999999998,50.747Q30.74961,50.8714,30.997,50.9357Q31.2444,51,31.5,51L31.5168,50.9999Q31.787,50.9977,32.0468,50.9238Q32.2363,50.8699,32.4116,50.7801Q32.587,50.6904,32.7414,50.5681Q32.8959,50.4458,33.0235,50.2958Q33.1511,50.1457,33.247,49.9737Q33.3714,49.7504,33.4357,49.503Q33.5,49.2556,33.5,49Q33.5,48.9294,33.495,48.859Q33.4863,48.7352,33.4623,48.6134Q33.4383,48.4916,33.3994,48.3737Q33.3605,48.2558,33.3074,48.1436Q33.2542,48.0315,33.1876,47.9267Q33.121,47.822,33.0419,47.726299999999995Q32.9629,47.6306,32.8726,47.5454Q32.7823,47.4602,32.6822,47.3868Q32.5821,47.3134,32.4737,47.253L32.4728,47.2525L21.974796,41.4016L21.973658,41.400999999999996Q21.750388,41.2766,21.503,41.2123Q21.255611,41.147999999999996,21.00000695419,41.147999999999996Q20.9293996,41.147999999999996,20.858975,41.153Q20.735154,41.161699999999996,20.613365,41.1857Q20.491576,41.2097,20.37369,41.248599999999996Q20.255803,41.2875,20.143628,41.340599999999995Q20.031452,41.3938,19.92671,41.4604Q19.82197,41.527,19.72627,41.6061Q19.63057,41.6851,19.54537,41.775400000000005Q19.46018,41.865700000000004,19.38681,41.9658Q19.31344,42.0659,19.25301,42.1743Q19.12857,42.3976,19.06428,42.644999999999996Q19,42.892399999999995,19,43.147999999999996L19.00007,43.1648Q19.00234,43.435,19.07621,43.6948Q19.13007,43.884299999999996,19.21985,44.0596Q19.30964,44.235,19.43191,44.389399999999995Q19.55418,44.5439,19.70423,44.6715Q19.85428,44.799099999999996,20.026342,44.894999999999996L20.027481,44.8956L30.52552,50.7465Z" fill-rule="evenodd" fill="url(#master_svg2_0_30)" fill-opacity="1"/></g><g><path d="M40,43.1768L9.528714,26.24831L11.471286,22.75169L42,39.7121L72.5287,22.75169L74.4713,26.24831L44,43.1768L44,77L40,77L40,43.1768Z" fill-rule="evenodd" fill="url(#master_svg3_0_30)" fill-opacity="1"/></g></g></g></svg>