<svg xmlns="http://www.w3.org/2000/svg" xmlns:xlink="http://www.w3.org/1999/xlink" fill="none" version="1.1" width="84" height="84" viewBox="0 0 84 84"><defs><clipPath id="master_svg0_0_95"><rect x="0" y="0" width="84" height="84" rx="0"/></clipPath><linearGradient x1="0" y1="0.5" x2="1" y2="0.5" id="master_svg1_0_30"><stop offset="0%" stop-color="#2AF598" stop-opacity="1"/><stop offset="100%" stop-color="#009EFD" stop-opacity="1"/></linearGradient></defs><g clip-path="url(#master_svg0_0_95)"><g><path d="M41.7585,7.203003667755127C42.191900000000004,6.660643667755127,42.7286,6.209642667755127,43.3376,5.876104667755127C43.9465,5.542566667755127,44.6155,5.333116667755127,45.3059,5.259877167755127C45.9963,5.186637867755127,46.6944,5.251064267755127,47.3597,5.449427667755127C48.025,5.647790667755127,48.6444,5.976150667755127,49.182,6.415503667755127C49.182,6.415503667755127,66.3075,20.401483667755127,66.3075,20.401483667755127C67.2493,21.17048366775513,67.89500000000001,22.242483667755128,68.1344,23.434583667755128C68.3737,24.626583667755128,68.1919,25.864783667755127,67.62,26.937783667755127C66.12270000000001,26.480183667755128,64.5656,26.248383667755128,63,26.249983667755128C63,26.249983667755128,61.425,26.249983667755128,61.425,26.249983667755128C61.425,26.249983667755128,62.9895,24.464983667755128,62.9895,24.464983667755128C62.9895,24.464983667755128,53.97,17.099283667755127,53.97,17.099283667755127C53.97,17.099283667755127,46.5308,26.255283667755126,46.5308,26.255283667755126C46.5308,26.255283667755126,39.7635,26.255283667755126,39.7635,26.255283667755126C39.7635,26.255283667755126,49.9012,13.781253667755127,49.9012,13.781253667755127C49.9012,13.781253667755127,45.8587,10.479003667755126,45.8587,10.479003667755126C45.8587,10.479003667755126,33.2692,26.249983667755128,33.2692,26.249983667755128C33.2692,26.249983667755128,26.5493,26.249983667755128,26.5493,26.249983667755128C26.5493,26.249983667755128,41.7585,7.203003667755127,41.7585,7.203003667755127C41.7585,7.203003667755127,41.7585,7.203003667755127,41.7585,7.203003667755127ZM55.125,52.499983667755124C54.4288,52.499983667755124,53.7611,52.776583667755126,53.2688,53.26888366775513C52.7766,53.76108366775513,52.5,54.42878366775513,52.5,55.124983667755124C52.5,55.82118366775513,52.7766,56.488883667755125,53.2688,56.981183667755126C53.7611,57.473483667755126,54.4288,57.749983667755124,55.125,57.749983667755124C55.125,57.749983667755124,60.375,57.749983667755124,60.375,57.749983667755124C61.0712,57.749983667755124,61.7389,57.473483667755126,62.2312,56.981183667755126C62.7234,56.488883667755125,63,55.82118366775513,63,55.124983667755124C63,54.42878366775513,62.7234,53.76108366775513,62.2312,53.26888366775513C61.7389,52.776583667755126,61.0712,52.499983667755124,60.375,52.499983667755124C60.375,52.499983667755124,55.125,52.499983667755124,55.125,52.499983667755124ZM15.75,28.874983667755128C15.75,28.178783667755127,16.02656,27.511083667755127,16.51885,27.018883667755127C17.01113,26.526583667755126,17.67881,26.249983667755128,18.375,26.249983667755128C18.375,26.249983667755128,21.3045,26.249983667755128,21.3045,26.249983667755128C21.3045,26.249983667755128,25.4783,20.999983667755124,25.4783,20.999983667755124C25.4783,20.999983667755124,18.375,20.999983667755124,18.375,20.999983667755124C16.28642,20.999983667755124,14.283380000000001,21.829683667755127,12.80653,23.306483667755128C11.329685,24.78338366775513,10.500000000000004,26.78638366775513,10.5,28.874983667755128C10.5,28.874983667755128,10.5,60.374983667755124,10.5,60.374983667755124C10.5,63.855983667755126,11.88281,67.19438366775512,14.34422,69.65578366775513C16.80564,72.11718366775513,20.14403,73.49998366775513,23.625,73.49998366775513C23.625,73.49998366775513,63,73.49998366775513,63,73.49998366775513C65.78479999999999,73.49998366775513,68.4555,72.39378366775513,70.4246,70.42458366775513C72.3937,68.45548366775512,73.5,65.78478366775514,73.5,62.999983667755124C73.5,62.999983667755124,73.5,41.999983667755124,73.5,41.999983667755124C73.5,39.21518366775513,72.3937,36.54448366775513,70.4246,34.575383667755126C68.4555,32.60628366775512,65.78479999999999,31.499983667755128,63,31.499983667755128C63,31.499983667755128,18.375,31.499983667755128,18.375,31.499983667755128C17.67881,31.499983667755128,17.01113,31.223483667755126,16.51885,30.731183667755126C16.02656,30.238883667755125,15.75,29.571183667755125,15.75,28.874983667755128ZM15.75,60.374983667755124C15.75,60.374983667755124,15.75,36.30378366775513,15.75,36.30378366775513C16.569,36.592483667755126,17.45625,36.74998366775513,18.375,36.74998366775513C18.375,36.74998366775513,63,36.74998366775513,63,36.74998366775513C64.39240000000001,36.74998366775513,65.7277,37.303083667755125,66.7123,38.287683667755125C67.6969,39.272283667755126,68.25,40.60758366775513,68.25,41.999983667755124C68.25,41.999983667755124,68.25,62.999983667755124,68.25,62.999983667755124C68.25,64.39238366775513,67.6969,65.72778366775512,66.7123,66.71228366775512C65.7277,67.69688366775512,64.39240000000001,68.24998366775512,63,68.24998366775512C63,68.24998366775512,23.625,68.24998366775512,23.625,68.24998366775512C21.5364,68.24998366775512,19.53338,67.42028366775513,18.056530000000002,65.94348366775512C16.57969,64.46658366775512,15.75,62.463583667755124,15.75,60.374983667755124Z" fill="url(#master_svg1_0_30)" fill-opacity="1"/></g></g></svg>