<svg xmlns="http://www.w3.org/2000/svg" xmlns:xlink="http://www.w3.org/1999/xlink" fill="none" version="1.1" width="24" height="24" viewBox="0 0 24 24"><defs><clipPath id="master_svg0_0_121"><rect x="0" y="0" width="24" height="24" rx="0"/></clipPath></defs><g clip-path="url(#master_svg0_0_121)"><g><path d="M21.283624197387695,8.275782619247437C21.283624197387695,8.275782619247437,15.332824197387696,7.410942619247437,15.332824197387696,7.410942619247437C15.332824197387696,7.410942619247437,12.672624197387695,2.0179686192474366,12.672624197387695,2.0179686192474366C12.600024197387695,1.8703126192474366,12.480424197387695,1.7507816192474366,12.332824197387696,1.6781250192474366C11.962504197387695,1.4953126192474366,11.512494197387696,1.6476563192474365,11.327344197387696,2.0179686192474366C11.327344197387696,2.0179686192474366,8.667184197387694,7.410942619247437,8.667184197387694,7.410942619247437C8.667184197387694,7.410942619247437,2.716406197387695,8.275782619247437,2.716406197387695,8.275782619247437C2.5523441973876952,8.299222619247438,2.4023441973876953,8.376562619247437,2.287500197387695,8.493752619247436C2.1486602973876954,8.636452619247436,2.0721533173876954,8.828442619247436,2.074790164387695,9.027522619247437C2.0774270073876955,9.226602619247437,2.1589919973876954,9.416492619247435,2.301562197387695,9.555472619247436C2.301562197387695,9.555472619247436,6.607034197387695,13.753172619247437,6.607034197387695,13.753172619247437C6.607034197387695,13.753172619247437,5.589844197387695,19.680472619247436,5.589844197387695,19.680472619247436C5.565994197387695,19.818372619247437,5.581244197387695,19.960172619247437,5.633884197387696,20.089772619247437C5.686524197387696,20.219472619247437,5.774444197387695,20.331772619247438,5.8876641973876955,20.413972619247435C6.000884197387695,20.496272619247435,6.1348741973876955,20.545072619247435,6.274454197387695,20.555072619247436C6.414024197387695,20.56497261924744,6.5536041973876955,20.535672619247435,6.677344197387695,20.470272619247435C6.677344197387695,20.470272619247435,11.999994197387695,17.671872619247438,11.999994197387695,17.671872619247438C11.999994197387695,17.671872619247438,17.322624197387697,20.470272619247435,17.322624197387697,20.470272619247435C17.467924197387696,20.547672619247436,17.636724197387693,20.573472619247436,17.798424197387696,20.545272619247438C18.206224197387694,20.474972619247435,18.480424197387695,20.088272619247437,18.410124197387695,19.680472619247436C18.410124197387695,19.680472619247436,17.392924197387693,13.753172619247437,17.392924197387693,13.753172619247437C17.392924197387693,13.753172619247437,21.698424197387695,9.555472619247436,21.698424197387695,9.555472619247436C21.815624197387695,9.440622619247437,21.892924197387696,9.290622619247436,21.916424197387695,9.126562619247437C21.979724197387696,8.716402619247436,21.693724197387695,8.336722619247436,21.283624197387695,8.275782619247437C21.283624197387695,8.275782619247437,21.283624197387695,8.275782619247437,21.283624197387695,8.275782619247437Z" fill="#F2C94C" fill-opacity="1"/></g></g></svg>